<svg
    xmlns="http://www.w3.org/2000/svg" x="0px" y="0px"
    width="100" height="100"
    viewBox="0 0 172 172"   
>
    <g fill="none" fill-rule="nonzero" stroke="none" stroke-width="1" stroke-linecap="butt" stroke-linejoin="miter" stroke-miterlimit="10" stroke-dasharray="" stroke-dashoffset="0" font-family="none" font-weight="none" font-size="none" text-anchor="none">
        <path d="M0,172v-172h172v172z" fill="none">
        </path>
        <g>
            <path d="M152.57088,95.76444c0.516,-1.05952 0.97352,-2.17408 1.36912,-3.34196c4.52876,-13.3644 -2.32028,-29.37416 -16.74076,-33.239c-1.56004,-19.57876 -15.32004,-33.01196 -30.85852,-35.303c-17.78652,-2.623 -34.08008,8.67568 -39.50152,26.6342c-6.53428,-2.31512 -12.90172,-2.03304 -18.9028,1.47404c-2.72276,1.25904 -5.21332,3.11664 -7.4476,5.56076c-3.28004,3.58792 -5.41284,8.11668 -6.28144,12.8914c-1.28656,0.20296 -2.55076,0.40592 -3.74272,0.83248c-6.9488,2.49228 -11.33308,7.62132 -12.53536,15.34756c-0.7482,4.81084 0.76196,9.60964 1.60476,11.54808c3.3282,7.6626 11.04584,12.0056 18.88732,10.85664c0.39044,-0.05676 0.95804,0.11868 1.29344,0.40076c0.41452,12.2464 6.36056,23.07724 15.28048,29.26408c14.31212,9.92784 32.72644,6.86968 44.34332,-6.74412c4.97768,5.0912 10.90136,7.56456 17.86048,6.66672c6.91956,-0.89268 12.29284,-4.71108 16.21272,-10.92028c1.81116,0.48676 3.52772,1.18852 5.30276,1.38288c6.95224,0.76024 12.59728,-2.0038 16.73904,-8.256c1.58584,-2.39252 3.08396,-5.49368 3.08396,-10.92888c0.00172,-5.60032 -2.22396,-10.70356 -5.96668,-14.12636z" fill="#cecece">
            </path>
            <path d="M31.59468,82.06636h-17.25332c-0.47472,0 -0.86,-0.38528 -0.86,-0.86c0,-0.47472 0.38528,-0.86 0.86,-0.86h17.2516c0.47472,0 0.86,0.38528 0.86,0.86c0,0.47472 -0.38356,0.86 -0.85828,0.86zM36.54828,82.06636h-2.4854c-0.47472,0 -0.86,-0.38528 -0.86,-0.86c0,-0.47472 0.38528,-0.86 0.86,-0.86h2.4854c0.47472,0 0.86,0.38528 0.86,0.86c0,0.47472 -0.38356,0.86 -0.86,0.86zM43.52288,82.06636h-4.37912c-0.47472,0 -0.86,-0.38528 -0.86,-0.86c0,-0.47472 0.38528,-0.86 0.86,-0.86h4.37912c0.47472,0 0.86,0.38528 0.86,0.86c0,0.47472 -0.38528,0.86 -0.86,0.86zM43.52288,85.27416h-16.53952c-0.47472,0 -0.86,-0.38528 -0.86,-0.86c0,-0.47472 0.38528,-0.86 0.86,-0.86h16.53952c0.47472,0 0.86,0.38528 0.86,0.86c0,0.47472 -0.38528,0.86 -0.86,0.86zM24.00432,85.27416h-0.9976c-0.47472,0 -0.86,-0.38528 -0.86,-0.86c0,-0.47472 0.38528,-0.86 0.86,-0.86h0.9976c0.47472,0 0.86,0.38528 0.86,0.86c0,0.47472 -0.38356,0.86 -0.86,0.86zM19.91588,85.27416h-2.50432c-0.47472,0 -0.86,-0.38528 -0.86,-0.86c0,-0.47472 0.38528,-0.86 0.86,-0.86h2.50432c0.47472,0 0.86,0.38528 0.86,0.86c0,0.47472 -0.38356,0.86 -0.86,0.86zM35.6298,78.85856h-8.64644c-0.47472,0 -0.86,-0.38528 -0.86,-0.86c0,-0.47472 0.38528,-0.86 0.86,-0.86h8.64644c0.47472,0 0.86,0.38528 0.86,0.86c0,0.47472 -0.38356,0.86 -0.86,0.86zM35.6298,75.65076h-2.16204c-0.47472,0 -0.86,-0.38528 -0.86,-0.86c0,-0.47472 0.38528,-0.86 0.86,-0.86h2.16204c0.47472,0 0.86,0.38528 0.86,0.86c0,0.47472 -0.38356,0.86 -0.86,0.86zM30.00884,88.48196h-3.02548c-0.47472,0 -0.86,-0.38528 -0.86,-0.86c0,-0.47472 0.38528,-0.86 0.86,-0.86h3.02548c0.47472,0 0.86,0.38528 0.86,0.86c0,0.47472 -0.38528,0.86 -0.86,0.86zM123.05912,36.86992h-17.2516c-0.47472,0 -0.86,-0.38528 -0.86,-0.86c0,-0.47472 0.38528,-0.86 0.86,-0.86h17.2516c0.47472,0 0.86,0.38528 0.86,0.86c0,0.47472 -0.38356,0.86 -0.86,0.86zM128.01444,36.86992h-2.4854c-0.47472,0 -0.86,-0.38528 -0.86,-0.86c0,-0.47472 0.38528,-0.86 0.86,-0.86h2.4854c0.47472,0 0.86,0.38528 0.86,0.86c0,0.47472 -0.38528,0.86 -0.86,0.86zM134.98904,36.86992h-4.37912c-0.47472,0 -0.86,-0.38528 -0.86,-0.86c0,-0.47472 0.38528,-0.86 0.86,-0.86h4.37912c0.47472,0 0.86,0.38528 0.86,0.86c0,0.47472 -0.38528,0.86 -0.86,0.86zM131.50432,30.45432h-16.53952c-0.47472,0 -0.86,-0.38528 -0.86,-0.86c0,-0.47472 0.38528,-0.86 0.86,-0.86h16.53952c0.47472,0 0.86,0.38528 0.86,0.86c0,0.47472 -0.38356,0.86 -0.86,0.86zM111.98748,30.45432h-0.9976c-0.47472,0 -0.86,-0.38528 -0.86,-0.86c0,-0.47472 0.38528,-0.86 0.86,-0.86h0.9976c0.47472,0 0.86,0.38528 0.86,0.86c0,0.47472 -0.38528,0.86 -0.86,0.86zM107.89904,30.45432h-2.50432c-0.47472,0 -0.86,-0.38528 -0.86,-0.86c0,-0.47472 0.38528,-0.86 0.86,-0.86h2.50432c0.47472,0 0.86,0.38528 0.86,0.86c0,0.47472 -0.38528,0.86 -0.86,0.86zM127.09596,33.66212h-8.64644c-0.47472,0 -0.86,-0.38528 -0.86,-0.86c0,-0.47472 0.38528,-0.86 0.86,-0.86h8.64644c0.47472,0 0.86,0.38528 0.86,0.86c0,0.47472 -0.38528,0.86 -0.86,0.86z" fill="#ffffff">
            </path>
            <path d="M127.09596,30.45432h-2.16204c-0.47472,0 -0.86,-0.38528 -0.86,-0.86c0,-0.47472 0.38528,-0.86 0.86,-0.86h2.16204c0.47472,0 0.86,0.38528 0.86,0.86c0,0.47472 -0.38528,0.86 -0.86,0.86zM115.94692,33.66212h-3.02548c-0.47472,0 -0.86,-0.38528 -0.86,-0.86c0,-0.47472 0.38528,-0.86 0.86,-0.86h3.02548c0.47472,0 0.86,0.38528 0.86,0.86c0,0.47472 -0.38528,0.86 -0.86,0.86z" fill="#ffffff">
            </path>
            <path d="M125.1644,96.96328c0,0 17.73148,0 17.83812,0c4.09532,0 7.4132,-3.3196 7.4132,-7.41492c0,-3.57244 -2.52668,-6.5532 -5.891,-7.25668c0.03956,-0.31304 0.06536,-0.62952 0.06536,-0.95288c0,-4.24152 -3.43828,-7.6798 -7.67808,-7.6798c-2.50432,0 -4.7214,1.204 -6.1232,3.05816c-0.35776,-4.7214 -4.5752,-8.36264 -9.50816,-7.75892c-3.60684,0.44204 -6.59104,3.23016 -7.25496,6.8026c-0.21328,1.14552 -0.19092,2.25836 0.02064,3.3024c-0.96664,-1.04232 -2.34436,-1.69764 -3.87688,-1.69764c-2.80704,0 -5.09636,2.1844 -5.27868,4.945c-1.27452,-0.28208 -2.66084,-0.26316 -4.12112,0.2838c-2.78984,1.04748 -4.77816,3.67564 -4.8934,6.65296c-0.16512,4.22948 3.21468,7.71076 7.40804,7.71076c0.3182,0 1.43792,0 1.69592,0h15.39572" fill="#fdfcef">
            </path>
            <path d="M143.00252,97.82328h-17.83812c-0.47472,0 -0.86,-0.38528 -0.86,-0.86c0,-0.47472 0.38528,-0.86 0.86,-0.86h17.83812c3.61544,0 6.55492,-2.93948 6.55492,-6.55492c0,-3.08568 -2.18956,-5.78436 -5.20644,-6.41388c-0.43688,-0.09116 -0.73272,-0.50224 -0.67768,-0.946c0.0344,-0.27864 0.05848,-0.56072 0.05848,-0.84796c0,-3.75992 -3.05816,-6.8198 -6.81808,-6.8198c-2.15,0 -4.13144,0.99072 -5.43864,2.7176c-0.215,0.28552 -0.58824,0.40764 -0.92708,0.30616c-0.344,-0.10148 -0.58824,-0.40248 -0.61576,-0.76024c-0.15652,-2.06056 -1.16444,-3.99728 -2.76748,-5.31136c-1.61852,-1.32612 -3.6636,-1.9178 -5.77748,-1.6598c-3.24048,0.3956 -5.91852,2.9068 -6.51364,6.106c-0.18404,1.00104 -0.17888,2.00208 0.02064,2.97388c0.0774,0.3784 -0.10664,0.76024 -0.45064,0.9374c-0.33884,0.17716 -0.76024,0.10492 -1.0234,-0.17888c-0.85312,-0.91676 -2.00552,-1.42244 -3.24908,-1.42244c-2.32716,0 -4.2656,1.81976 -4.41868,4.14176c-0.0172,0.25112 -0.14104,0.4816 -0.34228,0.63124c-0.20124,0.14964 -0.46268,0.20296 -0.70004,0.15136c-1.25732,-0.27864 -2.44584,-0.1978 -3.63264,0.25112c-2.494,0.93568 -4.23808,3.29896 -4.33612,5.88068c-0.07052,1.80256 0.57792,3.51052 1.82492,4.80568c1.24872,1.29688 2.92572,2.01068 4.72484,2.01068h17.09164c0.47472,0 0.86,0.38528 0.86,0.86c0,0.47472 -0.38528,0.86 -0.86,0.86h-17.0968c-2.2704,0 -4.38944,-0.90128 -5.96496,-2.53872c-1.5738,-1.63744 -2.39252,-3.79088 -2.3048,-6.06644c0.12728,-3.26456 2.31856,-6.24876 5.4524,-7.42524c1.19884,-0.45064 2.4338,-0.60544 3.698,-0.46956c0.61404,-2.76404 3.09256,-4.816 6.00108,-4.816c0.9976,0 1.97456,0.24768 2.84832,0.7052c0.0086,-0.53492 0.06192,-1.07156 0.1634,-1.60648c0.72928,-3.92848 4.01792,-7.01244 7.99456,-7.4992c2.58344,-0.3182 5.0912,0.40764 7.0778,2.03648c1.49468,1.22636 2.56796,2.89476 3.08052,4.73688c1.53768,-1.33644 3.49332,-2.07776 5.57796,-2.07776c4.70764,0 8.53808,3.83044 8.53808,8.5398c0,0.10148 -0.00172,0.20296 -0.00688,0.30272c3.42108,1.0578 5.83252,4.26732 5.83252,7.90684c0.00344,4.56144 -3.71004,8.2732 -8.27148,8.2732z" fill="#472b29">
            </path>
            <path d="M146.00564,83.16028c-2.57656,-1.21432 -5.55732,-0.35432 -6.6564,1.92124c-0.13588,0.28208 -0.23736,0.57448 -0.30444,0.87032" fill="#fdfcef">
            </path>
            <path d="M139.04308,86.38184c-0.03268,0 -0.06364,-0.00344 -0.09632,-0.01032c-0.2322,-0.0516 -0.37668,-0.2838 -0.32336,-0.51428c0.0774,-0.33368 0.1892,-0.65876 0.33884,-0.9632c1.19712,-2.48196 4.44104,-3.43484 7.224,-2.12076c0.215,0.10148 0.30788,0.35776 0.2064,0.57276c-0.1032,0.21672 -0.3612,0.30444 -0.57276,0.2064c-2.35984,-1.11112 -5.08948,-0.34056 -6.08364,1.72c-0.1204,0.24768 -0.21328,0.5074 -0.27348,0.77744c-0.04472,0.19608 -0.2236,0.33196 -0.41968,0.33196z" fill="#472b29">
            </path>
            <path d="M116.54376,116.52484h-57.39468c-0.94944,0 -1.72,-0.77056 -1.72,-1.72v-51.96636c0,-4.4032 3.6034,-8.0066 8.0066,-8.0066h44.82148c4.4032,0 8.0066,3.6034 8.0066,8.0066v51.96464c0,0.95116 -0.77056,1.72172 -1.72,1.72172z" fill="#fdfcef">
            </path>
            <path d="M116.54376,117.72884h-57.39468c-1.61336,0 -2.924,-1.31236 -2.924,-2.924v-51.96636c0,-5.07916 4.13144,-9.2106 9.20888,-9.2106h44.8232c5.07916,0 9.2106,4.13144 9.2106,9.2106v51.96464c0,1.61336 -1.31064,2.92572 -2.924,2.92572zM65.43396,56.03588c-3.75132,0 -6.80088,3.05128 -6.80088,6.8026v51.96464c0,0.28552 0.2322,0.516 0.516,0.516h57.39468c0.2838,0 0.516,-0.23048 0.516,-0.516v-51.96464c0,-3.75132 -3.05128,-6.8026 -6.8026,-6.8026z" fill="#472b29">
            </path>
            <path d="M111.2582,55.68844l-46.67908,-0.02924c-3.51912,0 -5.99764,2.90508 -5.99764,6.45516v6.42592h49.42764h9.06096v-6.42592c0,-3.55008 -2.29276,-6.42592 -5.81188,-6.42592z" fill="#a88a9c">
            </path>
            <path d="M112.6944,68.75872h-1.71312c-0.35604,0 -0.645,-0.28896 -0.645,-0.645c0,-0.35604 0.28896,-0.645 0.645,-0.645h1.71312c0.35604,0 0.645,0.28896 0.645,0.645c0,0.35604 -0.28896,0.645 -0.645,0.645zM109.26816,68.75872h-51.4108c-0.35604,0 -0.645,-0.28896 -0.645,-0.645c0,-0.35604 0.28896,-0.645 0.645,-0.645h51.4108c0.35604,0 0.645,0.28896 0.645,0.645c0,0.35604 -0.28896,0.645 -0.645,0.645z" fill="#472b29">
            </path>
            <path d="M65.56812,60.82608c-0.94613,0 -1.71312,0.76699 -1.71312,1.71312c0,0.94613 0.76699,1.71312 1.71312,1.71312c0.94613,0 1.71312,-0.76699 1.71312,-1.71312c0,-0.94613 -0.76699,-1.71312 -1.71312,-1.71312z" fill="#fdfcef">
            </path>
            <path d="M65.56812,65.11232c-1.419,0 -2.57312,-1.15412 -2.57312,-2.57312c0,-1.419 1.15412,-2.57484 2.57312,-2.57484c1.419,0 2.57312,1.15412 2.57312,2.57484c0.00172,1.419 -1.1524,2.57312 -2.57312,2.57312zM65.56812,61.68436c-0.46956,0 -0.85312,0.38356 -0.85312,0.85484c0,0.46956 0.38356,0.85312 0.85312,0.85312c0.46956,0 0.85312,-0.38356 0.85312,-0.85312c0.00172,-0.47128 -0.38184,-0.85484 -0.85312,-0.85484z" fill="#472b29">
            </path>
            <path d="M110.12472,60.82608c-0.94613,0 -1.71312,0.76699 -1.71312,1.71312c0,0.94613 0.76699,1.71312 1.71312,1.71312c0.94613,0 1.71312,-0.76699 1.71312,-1.71312c0,-0.94613 -0.76699,-1.71312 -1.71312,-1.71312z" fill="#fdfcef">
            </path>
            <path d="M110.12472,65.11232c-1.419,0 -2.57312,-1.15412 -2.57312,-2.57312c0,-1.419 1.15412,-2.57484 2.57312,-2.57484c1.419,0 2.57312,1.15412 2.57312,2.57484c0,1.419 -1.15412,2.57312 -2.57312,2.57312zM110.12472,61.68436c-0.46956,0 -0.85312,0.38356 -0.85312,0.85484c0,0.46956 0.38356,0.85312 0.85312,0.85312c0.46956,0 0.85312,-0.38356 0.85312,-0.85312c0,-0.47128 -0.38356,-0.85484 -0.85312,-0.85484zM108.83988,58.60728c-0.66564,0 -1.204,-0.53836 -1.204,-1.204v-5.14108c0,-0.66564 0.53836,-1.204 1.204,-1.204c0.66564,0 1.204,0.53836 1.204,1.204v5.14108c0,0.66392 -0.54008,1.204 -1.204,1.204zM102.84052,58.60728c-0.66564,0 -1.204,-0.53836 -1.204,-1.204v-5.14108c0,-0.66564 0.53836,-1.204 1.204,-1.204c0.66564,0 1.204,0.53836 1.204,1.204v5.14108c0.00172,0.66392 -0.53836,1.204 -1.204,1.204zM96.84288,58.60728c-0.66564,0 -1.204,-0.53836 -1.204,-1.204v-5.14108c0,-0.66564 0.53836,-1.204 1.204,-1.204c0.66564,0 1.204,0.53836 1.204,1.204v5.14108c0,0.66392 -0.53836,1.204 -1.204,1.204zM90.84524,58.60728c-0.66564,0 -1.204,-0.53836 -1.204,-1.204v-5.14108c0,-0.66564 0.53836,-1.204 1.204,-1.204c0.66564,0 1.204,0.53836 1.204,1.204v5.14108c0,0.66392 -0.54008,1.204 -1.204,1.204zM84.84588,58.60728c-0.66564,0 -1.204,-0.53836 -1.204,-1.204v-5.14108c0,-0.66564 0.53836,-1.204 1.204,-1.204c0.66564,0 1.204,0.53836 1.204,1.204v5.14108c0.00172,0.66392 -0.53836,1.204 -1.204,1.204zM78.84996,58.60728c-0.66564,0 -1.204,-0.53836 -1.204,-1.204v-5.14108c0,-0.66564 0.53836,-1.204 1.204,-1.204c0.66564,0 1.204,0.53836 1.204,1.204v5.14108c0,0.66392 -0.53836,1.204 -1.204,1.204zM72.85232,58.60728c-0.66564,0 -1.204,-0.53836 -1.204,-1.204v-5.14108c0,-0.66564 0.53836,-1.204 1.204,-1.204c0.66564,0 1.204,0.53836 1.204,1.204v5.14108c0,0.66392 -0.53836,1.204 -1.204,1.204zM66.85468,58.60728c-0.66564,0 -1.204,-0.53836 -1.204,-1.204v-5.14108c0,-0.66564 0.53836,-1.204 1.204,-1.204c0.66564,0 1.204,0.53836 1.204,1.204v5.14108c0,0.66392 -0.54008,1.204 -1.204,1.204zM117.83548,68.75872h-3.42796c-0.35604,0 -0.645,-0.28896 -0.645,-0.645c0,-0.35604 0.28896,-0.645 0.645,-0.645h3.42796c0.35604,0 0.645,0.28896 0.645,0.645c0,0.35604 -0.28896,0.645 -0.645,0.645z" fill="#472b29">
            </path>
            <path d="M75.85028,76.68104h1.71312v5.14108h-5.14108v-2.56968" fill="#cbc9bc">
            </path>
            <path d="M77.5634,82.46712h-5.13936c-0.35604,0 -0.645,-0.28896 -0.645,-0.645v-2.56968c0,-0.35604 0.28896,-0.645 0.645,-0.645c0.35604,0 0.645,0.28896 0.645,0.645v1.92468h3.84936v-3.85108h-1.06812c-0.35604,0 -0.645,-0.28896 -0.645,-0.645c0,-0.35604 0.28896,-0.645 0.645,-0.645h1.71312c0.35604,0 0.645,0.28896 0.645,0.645v5.14108c0,0.35604 -0.28896,0.645 -0.645,0.645z" fill="#472b29">
            </path>
            <path d="M80.99136,76.68104h5.14108v5.14108h-5.14108z" fill="#cbc9bc">
            </path>
            <path d="M86.13416,82.46712h-5.14108c-0.35604,0 -0.645,-0.28896 -0.645,-0.645v-5.14108c0,-0.35604 0.28896,-0.645 0.645,-0.645h5.14108c0.35604,0 0.645,0.28896 0.645,0.645v5.14108c0,0.35604 -0.28896,0.645 -0.645,0.645zM81.63636,81.17712h3.85108v-3.85108h-3.85108z" fill="#472b29">
            </path>
            <path d="M89.5604,76.68104h5.14108v5.14108h-5.14108z" fill="#cbc9bc">
            </path>
            <path d="M94.70148,82.46712h-5.14108c-0.35604,0 -0.645,-0.28896 -0.645,-0.645v-5.14108c0,-0.35604 0.28896,-0.645 0.645,-0.645h5.14108c0.35604,0 0.645,0.28896 0.645,0.645v5.14108c0,0.35604 -0.28896,0.645 -0.645,0.645zM90.2054,81.17712h3.85108v-3.85108h-3.85108z" fill="#472b29">
            </path>
            <path d="M98.12772,76.68104h5.14108v5.14108h-5.14108z" fill="#cbc9bc">
            </path>
            <path d="M103.2688,82.46712h-5.14108c-0.35604,0 -0.645,-0.28896 -0.645,-0.645v-5.14108c0,-0.35604 0.28896,-0.645 0.645,-0.645h5.14108c0.35604,0 0.645,0.28896 0.645,0.645v5.14108c0,0.35604 -0.28896,0.645 -0.645,0.645zM98.77272,81.17712h3.85108v-3.85108h-3.85108z" fill="#472b29">
            </path>
            <g>
                <path d="M106.69676,76.68104h5.14108v5.14108h-5.14108z" fill="#cbc9bc">
                </path>
                <path d="M111.83784,82.46712h-5.14108c-0.35604,0 -0.645,-0.28896 -0.645,-0.645v-5.14108c0,-0.35604 0.28896,-0.645 0.645,-0.645h5.14108c0.35604,0 0.645,0.28896 0.645,0.645v5.14108c0,0.35604 -0.28896,0.645 -0.645,0.645zM107.34176,81.17712h3.85108v-3.85108h-3.85108z" fill="#472b29">
                </path>
            </g>
            <g>
                <path d="M72.42232,85.25008h5.14108v5.14108h-5.14108z" fill="#cbc9bc">
                </path>
                <path d="M77.5634,91.03616h-5.13936c-0.35604,0 -0.645,-0.28896 -0.645,-0.645v-5.14108c0,-0.35604 0.28896,-0.645 0.645,-0.645h5.13936c0.35604,0 0.645,0.28896 0.645,0.645v5.14108c0,0.35604 -0.28896,0.645 -0.645,0.645zM73.06904,89.74616h3.84936v-3.85108h-3.84936z" fill="#472b29">
                </path>
                <path d="M80.99136,85.25008h5.14108v5.14108h-5.14108z" fill="#cbc9bc">
                </path>
                <path d="M86.13416,91.03616h-5.14108c-0.35604,0 -0.645,-0.28896 -0.645,-0.645v-5.14108c0,-0.35604 0.28896,-0.645 0.645,-0.645h5.14108c0.35604,0 0.645,0.28896 0.645,0.645v5.14108c0,0.35604 -0.28896,0.645 -0.645,0.645zM81.63636,89.74616h3.85108v-3.85108h-3.85108z" fill="#472b29">
                </path>
                <path d="M89.5604,85.25008h5.14108v5.14108h-5.14108z" fill="#cbc9bc">
                </path>
                <path d="M94.70148,91.03616h-5.14108c-0.35604,0 -0.645,-0.28896 -0.645,-0.645v-5.14108c0,-0.35604 0.28896,-0.645 0.645,-0.645h5.14108c0.35604,0 0.645,0.28896 0.645,0.645v5.14108c0,0.35604 -0.28896,0.645 -0.645,0.645zM90.2054,89.74616h3.85108v-3.85108h-3.85108z" fill="#472b29">
                </path>
                <g>
                    <path d="M98.12772,85.25008h5.14108v5.14108h-5.14108z" fill="#cbc9bc">
                    </path>
                    <path d="M103.2688,91.03616h-5.14108c-0.35604,0 -0.645,-0.28896 -0.645,-0.645v-5.14108c0,-0.35604 0.28896,-0.645 0.645,-0.645h5.14108c0.35604,0 0.645,0.28896 0.645,0.645v5.14108c0,0.35604 -0.28896,0.645 -0.645,0.645zM98.77272,89.74616h3.85108v-3.85108h-3.85108z" fill="#472b29">
                    </path>
                </g>
                <g>
                    <path d="M106.69676,85.25008h5.14108v5.14108h-5.14108z" fill="#cbc9bc">
                    </path>
                    <path d="M111.83784,91.03616h-5.14108c-0.35604,0 -0.645,-0.28896 -0.645,-0.645v-5.14108c0,-0.35604 0.28896,-0.645 0.645,-0.645h5.14108c0.35604,0 0.645,0.28896 0.645,0.645v5.14108c0,0.35604 -0.28896,0.645 -0.645,0.645zM107.34176,89.74616h3.85108v-3.85108h-3.85108z" fill="#472b29">
                    </path>
                </g>
                <g>
                    <path d="M63.855,85.25008h5.14108v5.14108h-5.14108z" fill="#cbc9bc">
                    </path>
                    <path d="M68.99608,91.03616h-5.13936c-0.35604,0 -0.645,-0.28896 -0.645,-0.645v-5.14108c0,-0.35604 0.28896,-0.645 0.645,-0.645h5.13936c0.35604,0 0.645,0.28896 0.645,0.645v5.14108c0,0.35604 -0.28896,0.645 -0.645,0.645zM64.5,89.74616h3.84936v-3.85108h-3.84936z" fill="#472b29">
                    </path>
                </g>
            </g>
            <g>
                <path d="M72.42232,93.8174h5.14108v5.14108h-5.14108z" fill="#cbc9bc">
                </path>
                <path d="M77.5634,99.60348h-5.13936c-0.35604,0 -0.645,-0.28896 -0.645,-0.645v-5.14108c0,-0.35604 0.28896,-0.645 0.645,-0.645h5.13936c0.35604,0 0.645,0.28896 0.645,0.645v5.14108c0,0.35604 -0.28896,0.645 -0.645,0.645zM73.06904,98.31348h3.84936v-3.85108h-3.84936z" fill="#472b29">
                </path>
                <path d="M80.99136,93.8174h5.14108v5.14108h-5.14108z" fill="#cbc9bc">
                </path>
                <path d="M86.13416,99.60348h-5.14108c-0.35604,0 -0.645,-0.28896 -0.645,-0.645v-5.14108c0,-0.35604 0.28896,-0.645 0.645,-0.645h5.14108c0.35604,0 0.645,0.28896 0.645,0.645v5.14108c0,0.35604 -0.28896,0.645 -0.645,0.645zM81.63636,98.31348h3.85108v-3.85108h-3.85108z" fill="#472b29">
                </path>
                <path d="M89.5604,93.8174h5.14108v5.14108h-5.14108z" fill="#cbc9bc">
                </path>
                <path d="M94.70148,99.60348h-5.14108c-0.35604,0 -0.645,-0.28896 -0.645,-0.645v-5.14108c0,-0.35604 0.28896,-0.645 0.645,-0.645h5.14108c0.35604,0 0.645,0.28896 0.645,0.645v5.14108c0,0.35604 -0.28896,0.645 -0.645,0.645zM90.2054,98.31348h3.85108v-3.85108h-3.85108z" fill="#472b29">
                </path>
                <path d="M103.2688,98.95848h-5.14108v-1.548v-3.59308h3.41076h1.73032z" fill="#cbc9bc">
                </path>
                <g>
                    <path d="M98.12772,97.41048v-3.59308h3.41076" fill="#cbc9bc">
                    </path>
                    <path d="M98.12772,98.05548c-0.35604,0 -0.645,-0.28896 -0.645,-0.645v-3.59136c0,-0.35604 0.28896,-0.645 0.645,-0.645h3.40904c0.35604,0 0.645,0.28896 0.645,0.645c0,0.35604 -0.28896,0.645 -0.645,0.645h-2.76404v2.94636c0,0.35604 -0.28896,0.645 -0.645,0.645z" fill="#472b29">
                    </path>
                </g>
                <g>
                    <path d="M63.855,93.8174h5.14108v5.14108h-5.14108z" fill="#cbc9bc">
                    </path>
                    <path d="M68.99608,99.60348h-5.13936c-0.35604,0 -0.645,-0.28896 -0.645,-0.645v-5.14108c0,-0.35604 0.28896,-0.645 0.645,-0.645h5.13936c0.35604,0 0.645,0.28896 0.645,0.645v5.14108c0,0.35604 -0.28896,0.645 -0.645,0.645zM64.5,98.31348h3.84936v-3.85108h-3.84936z" fill="#472b29">
                    </path>
                </g>
            </g>
            <g>
                <path d="M80.99136,102.38644h5.14108v5.14108h-5.14108z" fill="#cbc9bc">
                </path>
                <path d="M86.13416,108.17252h-5.14108c-0.35604,0 -0.645,-0.28896 -0.645,-0.645v-5.14108c0,-0.35604 0.28896,-0.645 0.645,-0.645h5.14108c0.35604,0 0.645,0.28896 0.645,0.645v5.14108c0,0.35604 -0.28896,0.645 -0.645,0.645zM81.63636,106.88252h3.85108v-3.85108h-3.85108z" fill="#472b29">
                </path>
                <g>
                    <path d="M93.8432,107.52752h-4.2828v-5.14108h5.14108v3.42796" fill="#cbc9bc">
                    </path>
                    <path d="M93.84492,108.17252h-4.28452c-0.35604,0 -0.645,-0.28896 -0.645,-0.645v-5.14108c0,-0.35604 0.28896,-0.645 0.645,-0.645h5.14108c0.35604,0 0.645,0.28896 0.645,0.645v3.42796c0,0.35604 -0.28896,0.645 -0.645,0.645c-0.35604,0 -0.645,-0.28896 -0.645,-0.645v-2.78296h-3.85108v3.85108h3.63952c0.35604,0 0.645,0.28896 0.645,0.645c0,0.35604 -0.28896,0.645 -0.645,0.645z" fill="#472b29">
                    </path>
                </g>
            </g>
            <g>
                <path d="M113.42196,93.01072c-8.98349,0 -16.26604,7.28255 -16.26604,16.26604c0,8.98349 7.28255,16.26604 16.26604,16.26604c8.98349,0 16.26604,-7.28255 16.26604,-16.26604c0,-8.98349 -7.28255,-16.26604 -16.26604,-16.26604z" fill="#fdfcee">
                </path>
                <path d="M113.42196,126.7468c-9.63372,0 -17.47004,-7.83804 -17.47004,-17.47004c0,-9.632 7.83804,-17.47004 17.47004,-17.47004c9.632,0 17.47004,7.83632 17.47004,17.47004c0,9.63372 -7.83804,17.47004 -17.47004,17.47004zM113.42196,94.21472c-8.30588,0 -15.06204,6.75616 -15.06204,15.06204c0,8.30588 6.75616,15.06204 15.06204,15.06204c8.30588,0 15.06204,-6.75616 15.06204,-15.06204c0,-8.30588 -6.75616,-15.06204 -15.06204,-15.06204z" fill="#472b29">
                </path>
            </g>
            <g>
                <path d="M68.08964,121.64356c3.23876,0 6.04924,0 6.0888,0c3.6292,0 6.57212,-2.87928 6.57212,-6.43108c0,-3.09944 -2.23944,-5.6846 -5.2202,-6.2952c0.0344,-0.27176 0.05848,-0.54524 0.05848,-0.8256c0,-3.67908 -3.04784,-6.66156 -6.80604,-6.66156c-2.2188,0 -4.18476,1.04404 -5.4266,2.65396c-0.3182,-4.09532 -4.05576,-7.25496 -8.428,-6.73036c-3.19748,0.38356 -5.84284,2.80188 -6.43108,5.90132c-0.1892,0.99416 -0.16856,1.95908 0.01892,2.8638c-0.85656,-0.903 -2.07776,-1.47232 -3.43656,-1.47232c-2.48712,0 -4.51844,1.89544 -4.6784,4.28968c-1.13004,-0.24424 -2.35812,-0.22876 -3.65156,0.24596c-2.47336,0.90816 -4.23464,3.18716 -4.33784,5.77232c-0.1462,3.66876 2.85004,6.68908 6.56696,6.68908c0.28208,0 1.27452,0 1.50328,0h13.64648M56.9492,121.64356h0.6192" fill="#fdfcef">
                </path>
                <path d="M74.17844,122.50356h-6.0888c-0.47472,0 -0.86,-0.38528 -0.86,-0.86c0,-0.47472 0.38528,-0.86 0.86,-0.86h6.0888c3.14932,0 5.7104,-2.49916 5.7104,-5.5728c0,-2.62128 -1.90576,-4.91404 -4.53392,-5.45068c-0.4386,-0.08944 -0.73616,-0.50224 -0.68112,-0.94772c0.02924,-0.23736 0.04988,-0.47644 0.04988,-0.72068c0,-3.1992 -2.66772,-5.80156 -5.94604,-5.80156c-1.87824,0 -3.60856,0.84452 -4.74548,2.31856c-0.21672,0.28208 -0.58824,0.40076 -0.92536,0.29756c-0.34056,-0.10148 -0.5848,-0.40248 -0.6106,-0.7568c-0.1376,-1.7544 -0.97352,-3.34368 -2.35812,-4.47888c-1.42416,-1.16788 -3.24564,-1.69076 -5.11184,-1.46544c-2.83112,0.33884 -5.17204,2.48024 -5.68976,5.20816c-0.16168,0.84968 -0.1548,1.69936 0.0172,2.5284c0.07912,0.37668 -0.1032,0.75852 -0.44376,0.93568c-0.33884,0.17888 -0.75508,0.11008 -1.02168,-0.17028c-0.73788,-0.77744 -1.73892,-1.204 -2.81564,-1.204c-2.01068,0 -3.6894,1.53252 -3.82012,3.48816c-0.0172,0.2494 -0.14104,0.47816 -0.34056,0.62952c-0.19952,0.15136 -0.45236,0.2064 -0.69832,0.15308c-1.10424,-0.23908 -2.13968,-0.16856 -3.1734,0.21328c-2.17064,0.79808 -3.6894,2.80704 -3.7754,5.00004c-0.0602,1.505 0.48504,2.93776 1.5394,4.03168c1.0922,1.13692 2.57312,1.763 4.16928,1.763h15.14804c0.47472,0 0.86,0.38528 0.86,0.86c0,0.47472 -0.38528,0.86 -0.86,0.86h-15.14804c-2.03992,0 -4.00932,-0.8342 -5.4094,-2.29104c-1.38116,-1.43448 -2.09668,-3.31616 -2.01928,-5.29244c0.11696,-2.87928 2.08636,-5.51088 4.902,-6.5446c1.04748,-0.38528 2.1328,-0.52632 3.23532,-0.41968c0.5934,-2.40112 2.80188,-4.16928 5.3922,-4.16928c0.86,0 1.6856,0.1892 2.43208,0.54868c0.01548,-0.4128 0.06192,-0.8256 0.14104,-1.24012c0.65532,-3.4572 3.60684,-6.16792 7.17412,-6.59448c2.34436,-0.2752 4.6182,0.37496 6.407,1.84212c1.28656,1.05436 2.19988,2.4252 2.66256,3.96116c1.36052,-1.11456 3.0702,-1.73204 4.88824,-1.73204c4.22776,0 7.66604,3.37464 7.66604,7.52156c0,0.05848 -0.00172,0.11696 -0.00344,0.17544c3.0358,0.9546 5.16688,3.76336 5.16688,6.94536c0.00172,4.02136 -3.33336,7.29108 -7.4304,7.29108zM57.56668,122.50356h-0.61748c-0.47472,0 -0.86,-0.38528 -0.86,-0.86c0,-0.47472 0.38528,-0.86 0.86,-0.86h0.61748c0.47472,0 0.86,0.38528 0.86,0.86c0,0.47472 -0.38528,0.86 -0.86,0.86z" fill="#472b29">
                </path>
                <path d="M71.24068,112.5224c-0.03268,0 -0.06364,-0.00344 -0.09804,-0.01032c-0.23048,-0.05332 -0.37496,-0.2838 -0.32164,-0.516c0.06536,-0.29068 0.16512,-0.5676 0.2924,-0.82388c1.03888,-2.10356 3.90956,-2.87928 6.40012,-1.73032c0.21672,0.09976 0.31132,0.35604 0.20984,0.57104c-0.09976,0.215 -0.35948,0.31132 -0.56932,0.20984c-2.07604,-0.95804 -4.43588,-0.35948 -5.26836,1.33128c-0.09976,0.19608 -0.17544,0.40936 -0.22704,0.63468c-0.04472,0.19952 -0.22016,0.33368 -0.41796,0.33368z" fill="#472b29">
                </path>
                <g fill="#472b29">
                    <path d="M62.36892,122.50356h-1.90404c-0.47472,0 -0.86,-0.38528 -0.86,-0.86c0,-0.47472 0.38528,-0.86 0.86,-0.86h1.90404c0.47472,0 0.86,0.38528 0.86,0.86c0,0.47472 -0.38528,0.86 -0.86,0.86z">
                    </path>
                </g>
            </g>
            <g>
                <path d="M105.5822,108.0848h14.92788v7.84836h-14.92788z" fill="#a88a9c">
                </path>
                <path d="M120.5118,116.57816h-14.9296c-0.35604,0 -0.645,-0.28896 -0.645,-0.645v-7.84836c0,-0.35604 0.28896,-0.645 0.645,-0.645h14.9296c0.35604,0 0.645,0.28896 0.645,0.645v7.84836c0,0.35604 -0.28896,0.645 -0.645,0.645zM106.2272,115.28816h13.6396v-6.55836h-13.6396z" fill="#472b29">
                </path>
                <path d="M116.7794,108.0848c0,1.20572 -0.83936,2.19128 -1.8662,2.19128c-1.02684,0 -1.8662,-0.98556 -1.8662,-2.19128z" fill="#fdfcef">
                </path>
                <path d="M114.9132,110.57536c-1.19368,0 -2.1672,-1.118 -2.1672,-2.49228c0,-0.16684 0.13416,-0.301 0.301,-0.301h3.7324c0.16684,0 0.301,0.13416 0.301,0.301c0,1.37428 -0.97352,2.49228 -2.1672,2.49228zM113.36692,108.38408c0.11868,0.89956 0.76712,1.58928 1.54456,1.58928c0.77744,0 1.42588,-0.68972 1.54456,-1.58928z" fill="#472b29">
                </path>
                <path d="M113.047,108.0848c0,1.20572 -0.83936,2.19128 -1.8662,2.19128c-1.02684,0 -1.8662,-0.98556 -1.8662,-2.19128z" fill="#fdfcef">
                </path>
                <path d="M111.1808,110.57536c-1.19368,0 -2.1672,-1.118 -2.1672,-2.49228c0,-0.16684 0.13416,-0.301 0.301,-0.301h3.7324c0.16684,0 0.301,0.13416 0.301,0.301c0,1.37428 -0.97352,2.49228 -2.1672,2.49228zM109.63624,108.38408c0.11868,0.89956 0.76712,1.58928 1.54456,1.58928c0.77744,0 1.42588,-0.68972 1.54456,-1.58928z" fill="#472b29">
                </path>
                <g>
                    <path d="M109.3146,108.0848c0,1.20572 -0.83936,2.19128 -1.8662,2.19128c-1.02684,0 -1.8662,-0.98556 -1.8662,-2.19128z" fill="#fdfcef">
                    </path>
                    <path d="M107.4484,110.57536c-1.19368,0 -2.1672,-1.118 -2.1672,-2.49228c0,-0.16684 0.13416,-0.301 0.301,-0.301h3.7324c0.16684,0 0.301,0.13416 0.301,0.301c0,1.37428 -0.97352,2.49228 -2.1672,2.49228zM105.90384,108.38408c0.11868,0.89956 0.76712,1.58928 1.54456,1.58928c0.77744,0 1.42588,-0.68972 1.54456,-1.58928z" fill="#472b29">
                    </path>
                </g>
                <g>
                    <path d="M120.5118,108.0848c0,1.20572 -0.83936,2.19128 -1.8662,2.19128c-1.02684,0 -1.8662,-0.98556 -1.8662,-2.19128z" fill="#fdfcef">
                    </path>
                    <path d="M118.6456,110.57536c-1.19368,0 -2.1672,-1.118 -2.1672,-2.49228c0,-0.16684 0.13416,-0.301 0.301,-0.301h3.7324c0.16684,0 0.301,0.13416 0.301,0.301c0,1.37428 -0.97352,2.49228 -2.1672,2.49228zM117.09932,108.38408c0.11868,0.89956 0.76712,1.58928 1.54456,1.58928c0.77744,0 1.42588,-0.68972 1.54456,-1.58928z" fill="#472b29">
                    </path>
                </g>
                <g>
                    <path d="M111.4044,104.86152h3.2852v3.01688h-3.2852z" fill="#fbcd59">
                    </path>
                    <path d="M114.6896,108.30668h-3.2852c-0.23736,0 -0.43,-0.19264 -0.43,-0.43v-3.01516c0,-0.23736 0.19264,-0.43 0.43,-0.43h3.2852c0.23736,0 0.43,0.19264 0.43,0.43v3.01516c0,0.23908 -0.19264,0.43 -0.43,0.43zM111.8344,107.44668h2.4252v-2.15516h-2.4252z" fill="#472b29">
                    </path>
                </g>
                <path d="M113.04872,104.6534c-0.11868,0 -0.215,-0.09632 -0.215,-0.215v-1.3244c0,-0.11868 0.09632,-0.215 0.215,-0.215c0.11868,0 0.215,0.09632 0.215,0.215v1.32612c0,0.11696 -0.09632,0.21328 -0.215,0.21328z" fill="#472b29">
                </path>
                <g>
                    <path d="M114.27508,102.05964c0,1.15928 -0.54868,1.33644 -1.22636,1.33644c-0.67768,0 -1.22636,-0.17716 -1.22636,-1.33644c0,-1.15928 1.22636,-2.86208 1.22636,-2.86208c0,0 1.22636,1.7028 1.22636,2.86208z" fill="#a88a9c">
                    </path>
                    <path d="M113.04872,103.7418c-0.67596,0 -1.57208,-0.17544 -1.57208,-1.68216c0,-1.2556 1.24012,-2.98936 1.29344,-3.06332c0.06364,-0.08944 0.16856,-0.14276 0.27864,-0.14276v0c0.11008,0 0.215,0.05332 0.27864,0.14276c0.05332,0.07224 1.29172,1.806 1.29172,3.06332c0,1.50672 -0.89612,1.68216 -1.57036,1.68216zM113.04872,99.8202c-0.3784,0.60888 -0.88408,1.5738 -0.88408,2.23944c0,0.92364 0.34916,0.99244 0.88408,0.99244c0.5332,0 0.88236,-0.0688 0.88236,-0.99244c0,-0.66736 -0.50568,-1.63228 -0.88236,-2.23944z" fill="#472b29">
                    </path>
                </g>
            </g>
        </g>
    </g>
</svg>