<svg xmlns="http://www.w3.org/2000/svg" x="0px" y="0px" width="250" height="250" viewBox="0 0 172 172">
    <g fill="none" fill-rule="nonzero" stroke="none" stroke-width="1" stroke-linecap="butt" stroke-linejoin="miter" stroke-miterlimit="10" stroke-dasharray="" stroke-dashoffset="0" font-family="none" font-weight="none" font-size="none" text-anchor="none">
        <path d="M0,172v-172h172v172z" fill="none"></path>
        <g>
            <path d="M151.59392,97.67536c0.51428,-1.05608 0.96836,-2.16548 1.36224,-3.3282c4.50984,-13.31108 -2.30996,-29.25376 -16.67196,-33.1014c-1.55316,-19.50136 -15.2564,-32.8778 -30.73124,-35.16024c-17.71256,-2.61096 -33.94076,8.64128 -39.33984,26.52584c-6.50848,-2.3048 -12.85012,-2.02444 -18.8254,1.46716c-2.71072,1.25388 -5.19096,3.1046 -7.41664,5.5384c-3.268,3.57244 -5.39048,8.084 -6.25564,12.8398c-1.2814,0.20124 -2.54044,0.4042 -3.72724,0.82904c-6.91956,2.48196 -11.28664,7.59036 -12.48376,15.28392c-0.74648,4.7902 0.75852,9.57008 1.59788,11.50164c3.31444,7.62992 11.00112,11.95744 18.80992,10.81192c0.38872,-0.05676 0.95288,0.11868 1.28828,0.39904c0.4128,12.19652 6.33476,22.98264 15.21856,29.14368c14.25364,9.88656 32.59228,6.84044 44.161,-6.7166c4.95704,5.07056 10.85836,7.5336 17.78824,6.6392c6.89032,-0.88924 12.24124,-4.69216 16.14564,-10.87384c1.80256,0.48504 3.51396,1.18508 5.28212,1.37772c6.923,0.7568 12.54568,-1.99692 16.67024,-8.2216c1.57896,-2.3822 3.07192,-5.47132 3.07192,-10.88416c0,-5.57968 -2.21536,-10.66228 -5.94432,-14.07132z" fill="#ececec"></path>
            <path d="M120.65284,113.80552c0,0 20.02596,0 20.14808,0c4.62508,0 8.37296,-3.7496 8.37296,-8.37468c0,-4.03512 -2.85348,-7.40116 -6.65296,-8.1958c0.043,-0.3526 0.07396,-0.71036 0.07396,-1.075c0,-4.7902 -3.88204,-8.67224 -8.67224,-8.67224c-2.82768,0 -5.332,1.36052 -6.9144,3.45376c-0.4042,-5.332 -5.16688,-9.44452 -10.73968,-8.7634c-4.07468,0.4988 -7.44416,3.64812 -8.19408,7.68324c-0.2408,1.29344 -0.215,2.55076 0.02408,3.72896c-1.0922,-1.17648 -2.64708,-1.9178 -4.37912,-1.9178c-3.16996,0 -5.75684,2.4682 -5.96152,5.58656c-1.43964,-0.3182 -3.00484,-0.29756 -4.65432,0.32164c-3.15104,1.18336 -5.39564,4.15036 -5.52808,7.51468c-0.18576,4.77816 3.63092,8.71008 8.36608,8.71008c0.35948,0 1.62368,0 1.91608,0h17.38748" fill="#fdfcef"></path>
            <path d="M140.80092,114.6638h-20.14808c-0.47472,0 -0.86,-0.38528 -0.86,-0.86c0,-0.47472 0.38528,-0.86 0.86,-0.86h20.14808c4.14176,0 7.51296,-3.3712 7.51296,-7.51296c0,-3.53976 -2.50948,-6.6306 -5.97012,-7.353c-0.43688,-0.09116 -0.73272,-0.50224 -0.67768,-0.94772c0.03784,-0.31992 0.06708,-0.63984 0.06708,-0.97008c0,-4.3086 -3.50364,-7.81224 -7.81224,-7.81224c-2.46476,0 -4.73516,1.13348 -6.22812,3.1132c-0.21672,0.28552 -0.58824,0.40592 -0.9288,0.30616c-0.344,-0.10148 -0.58824,-0.40248 -0.61576,-0.75852c-0.17888,-2.35812 -1.333,-4.57176 -3.16824,-6.07676c-1.85244,-1.51876 -4.1968,-2.19128 -6.60996,-1.89888c-3.7066,0.45408 -6.77336,3.3282 -7.45448,6.98664c-0.21156,1.14208 -0.20296,2.2876 0.02408,3.40216c0.0774,0.3784 -0.10664,0.76024 -0.45064,0.93568c-0.33712,0.1806 -0.76024,0.10492 -1.0234,-0.17888c-0.98212,-1.0578 -2.3134,-1.64088 -3.7496,-1.64088c-2.68664,0 -4.9278,2.10012 -5.10324,4.77988c-0.0172,0.25112 -0.14104,0.4816 -0.34056,0.63124c-0.20124,0.15308 -0.46612,0.2064 -0.70176,0.15308c-1.44652,-0.31992 -2.80704,-0.22188 -4.16756,0.28552c-2.85692,1.075 -4.85556,3.784 -4.9708,6.74412c-0.08084,2.06572 0.6622,4.02308 2.09152,5.50916c1.42932,1.48608 3.35228,2.30652 5.41456,2.30652h19.30528c0.47472,0 0.86,0.38528 0.86,0.86c0,0.47472 -0.38528,0.86 -0.86,0.86h-19.30184c-2.53528,0 -4.89856,-1.0062 -6.65468,-2.83284c-1.75612,-1.82664 -2.67116,-4.2312 -2.5714,-6.76992c0.14276,-3.64124 2.5886,-6.97288 6.08536,-8.28524c1.37084,-0.51256 2.78812,-0.68456 4.22604,-0.51256c0.64672,-3.12008 3.42108,-5.44896 6.69252,-5.44896c1.17132,0 2.31684,0.30616 3.32648,0.8686c-0.00172,-0.65704 0.0602,-1.31924 0.18232,-1.978c0.817,-4.39116 4.49092,-7.83632 8.9354,-8.37984c2.87412,-0.35604 5.68804,0.45408 7.90856,2.27384c1.72,1.40868 2.93948,3.33852 3.4916,5.46616c1.73204,-1.5652 3.97148,-2.43724 6.35884,-2.43724c5.25632,0 9.53224,4.27592 9.53224,9.53224c0,0.14276 -0.00344,0.2838 -0.01204,0.42312c3.8614,1.15412 6.59104,4.75924 6.59104,8.8494c0,5.08604 -4.14176,9.2278 -9.23296,9.2278z" fill="#472b29"></path>
            <path d="M115.799,95.35852c-3.09772,-0.20296 -5.76372,1.93672 -5.95464,4.77816c-0.02408,0.3526 -0.0086,0.70004 0.043,1.03888c-0.59684,-0.67424 -1.48264,-1.13348 -2.49744,-1.19884c-1.8576,-0.12212 -3.46236,1.10596 -3.69628,2.77436c-0.33884,-0.09288 -0.68972,-0.1548 -1.05608,-0.17888c-2.71072,-0.17716 -5.04304,1.6942 -5.20988,4.18132" fill="#fdfcef"></path>
            <path d="M97.42768,107.1818c-0.01032,0 -0.01892,0 -0.02924,-0.00172c-0.23736,-0.01548 -0.41624,-0.22016 -0.39904,-0.45752c0.18232,-2.71932 2.69008,-4.78848 5.6674,-4.58036c0.23048,0.01376 0.4644,0.043 0.69832,0.09116c0.47128,-1.6598 2.1328,-2.81392 4.05232,-2.68664c0.72756,0.04472 1.40868,0.27176 1.99004,0.65188c0.00172,-0.03096 0.00344,-0.0602 0.00688,-0.09116c0.20812,-3.07192 3.04096,-5.42316 6.41216,-5.17892c0.23736,0.01548 0.41624,0.22016 0.39904,0.45752c-0.01376,0.23564 -0.18232,0.4386 -0.45752,0.39904c-2.84488,-0.14448 -5.32168,1.77676 -5.49712,4.37912c-0.02064,0.31132 -0.00688,0.62952 0.03956,0.946c0.02924,0.18748 -0.07052,0.37324 -0.24424,0.45408c-0.17028,0.07912 -0.3784,0.03612 -0.50396,-0.10492c-0.55212,-0.62436 -1.33472,-0.99932 -2.2016,-1.05608c-1.63916,-0.07912 -3.04096,0.94944 -3.2422,2.40456c-0.01892,0.12212 -0.08772,0.2322 -0.1892,0.301c-0.10148,0.0688 -0.23048,0.08772 -0.35088,0.05504c-0.32508,-0.08944 -0.65188,-0.14448 -0.96836,-0.16684c-2.49056,-0.1376 -4.601,1.53596 -4.7558,3.78056c-0.01376,0.22876 -0.20124,0.4042 -0.42656,0.4042z" fill="#472b29"></path>
            <path d="M144.19104,98.21716c-2.91024,-1.37256 -6.27628,-0.40076 -7.51812,2.16892c-0.1548,0.31992 -0.26832,0.64844 -0.344,0.98212" fill="#fdfcef"></path>
            <path d="M136.3272,101.79992c-0.03268,0 -0.06364,-0.00344 -0.09804,-0.01204c-0.23048,-0.0516 -0.37496,-0.2838 -0.32164,-0.516c0.086,-0.37496 0.21328,-0.73616 0.37668,-1.07328c1.33988,-2.7778 4.96736,-3.84248 8.08744,-2.37188c0.215,0.1032 0.30788,0.35776 0.2064,0.57276c-0.1032,0.215 -0.36292,0.30444 -0.57276,0.2064c-2.69352,-1.27108 -5.8136,-0.38872 -6.94708,1.96768c-0.13588,0.27864 -0.2408,0.57964 -0.31476,0.8944c-0.043,0.1978 -0.22016,0.33196 -0.41624,0.33196z" fill="#472b29"></path>
            <path d="M31.11308,84.03748h-17.18108c-0.47472,0 -0.86,-0.38528 -0.86,-0.86c0,-0.47472 0.38528,-0.86 0.86,-0.86h17.18108c0.47472,0 0.86,0.38528 0.86,0.86c0,0.47472 -0.38356,0.86 -0.86,0.86zM36.04776,84.03748h-2.47508c-0.47472,0 -0.86,-0.38528 -0.86,-0.86c0,-0.47472 0.38528,-0.86 0.86,-0.86h2.47508c0.47472,0 0.86,0.38528 0.86,0.86c0,0.47472 -0.38356,0.86 -0.86,0.86zM42.99484,84.03748h-4.3602c-0.47472,0 -0.86,-0.38528 -0.86,-0.86c0,-0.47472 0.38528,-0.86 0.86,-0.86h4.3602c0.47472,0 0.86,0.38528 0.86,0.86c0,0.47472 -0.38528,0.86 -0.86,0.86zM42.99484,87.23152h-16.47244c-0.47472,0 -0.86,-0.38528 -0.86,-0.86c0,-0.47472 0.38528,-0.86 0.86,-0.86h16.47072c0.47472,0 0.86,0.38528 0.86,0.86c0,0.47472 -0.38356,0.86 -0.85828,0.86zM23.55712,87.23152h-0.99416c-0.47472,0 -0.86,-0.38528 -0.86,-0.86c0,-0.47472 0.38528,-0.86 0.86,-0.86h0.99416c0.47472,0 0.86,0.38528 0.86,0.86c0,0.47472 -0.38528,0.86 -0.86,0.86zM19.48588,87.23152h-2.494c-0.47472,0 -0.86,-0.38528 -0.86,-0.86c0,-0.47472 0.38528,-0.86 0.86,-0.86h2.494c0.47472,0 0.86,0.38528 0.86,0.86c0,0.47472 -0.38528,0.86 -0.86,0.86zM35.13444,80.84172h-8.61204c-0.47472,0 -0.86,-0.38528 -0.86,-0.86c0,-0.47472 0.38528,-0.86 0.86,-0.86h8.61204c0.47472,0 0.86,0.38528 0.86,0.86c0,0.47472 -0.38356,0.86 -0.86,0.86zM35.13444,77.6494h-2.15516c-0.47472,0 -0.86,-0.38528 -0.86,-0.86c0,-0.47472 0.38528,-0.86 0.86,-0.86h2.15516c0.47472,0 0.86,0.38528 0.86,0.86c0,0.47472 -0.38356,0.86 -0.86,0.86zM29.53412,90.42728h-3.01172c-0.47472,0 -0.86,-0.38528 -0.86,-0.86c0,-0.47472 0.38528,-0.86 0.86,-0.86h3.01172c0.47472,0 0.86,0.38528 0.86,0.86c0,0.47472 -0.38356,0.86 -0.86,0.86zM122.20428,39.0268h-17.18108c-0.47472,0 -0.86,-0.38528 -0.86,-0.86c0,-0.47472 0.38528,-0.86 0.86,-0.86h17.18108c0.47472,0 0.86,0.38528 0.86,0.86c0,0.47472 -0.38356,0.86 -0.86,0.86zM127.13896,39.0268h-2.47508c-0.47472,0 -0.86,-0.38528 -0.86,-0.86c0,-0.47472 0.38528,-0.86 0.86,-0.86h2.47508c0.47472,0 0.86,0.38528 0.86,0.86c0,0.47472 -0.38356,0.86 -0.86,0.86zM134.08432,39.0268h-4.3602c-0.47472,0 -0.86,-0.38528 -0.86,-0.86c0,-0.47472 0.38528,-0.86 0.86,-0.86h4.3602c0.47472,0 0.86,0.38528 0.86,0.86c0,0.47472 -0.38356,0.86 -0.86,0.86zM130.61508,32.637h-16.47072c-0.47472,0 -0.86,-0.38528 -0.86,-0.86c0,-0.47472 0.38528,-0.86 0.86,-0.86h16.47072c0.47472,0 0.86,0.38528 0.86,0.86c0,0.47472 -0.38528,0.86 -0.86,0.86zM111.17736,32.637h-0.99416c-0.47472,0 -0.86,-0.38528 -0.86,-0.86c0,-0.47472 0.38528,-0.86 0.86,-0.86h0.99416c0.47472,0 0.86,0.38528 0.86,0.86c0,0.47472 -0.38528,0.86 -0.86,0.86zM107.10612,32.637h-2.494c-0.47472,0 -0.86,-0.38528 -0.86,-0.86c0,-0.47472 0.38528,-0.86 0.86,-0.86h2.494c0.47472,0 0.86,0.38528 0.86,0.86c0,0.47472 -0.38528,0.86 -0.86,0.86zM126.22392,35.83104h-8.61204c-0.47472,0 -0.86,-0.38528 -0.86,-0.86c0,-0.47472 0.38528,-0.86 0.86,-0.86h8.61204c0.47472,0 0.86,0.38528 0.86,0.86c0,0.47472 -0.38356,0.86 -0.86,0.86z" fill="#ffffff"></path>
            <path d="M126.22392,32.637h-2.15344c-0.47472,0 -0.86,-0.38528 -0.86,-0.86c0,-0.47472 0.38528,-0.86 0.86,-0.86h2.15344c0.47472,0 0.86,0.38528 0.86,0.86c0,0.47472 -0.38356,0.86 -0.86,0.86zM115.1196,35.83104h-3.01172c-0.47472,0 -0.86,-0.38528 -0.86,-0.86c0,-0.47472 0.38528,-0.86 0.86,-0.86h3.01172c0.47472,0 0.86,0.38528 0.86,0.86c0,0.47472 -0.38528,0.86 -0.86,0.86z" fill="#ffffff"></path>
            <path d="M112.58088,113.80552h-57.44972c-4.41524,0 -8.02724,-3.612 -8.02724,-8.02724v-33.98548c0,-4.41524 3.612,-8.02724 8.02724,-8.02724h57.44972c4.41524,0 8.02724,3.612 8.02724,8.02724v33.98548c0,4.41524 -3.612,8.02724 -8.02724,8.02724z" fill="#a88a9c"></path>
            <path d="M112.58088,115.00952h-57.448c-5.08948,0 -9.22952,-4.14004 -9.22952,-9.22952v-33.9872c0,-5.08948 4.14004,-9.22952 9.22952,-9.22952h57.448c5.08948,0 9.23124,4.14004 9.23124,9.22952v33.9872c0,5.08776 -4.14176,9.22952 -9.23124,9.22952zM55.13116,64.97128c-3.76164,0 -6.82152,3.05988 -6.82152,6.82152v33.9872c0,3.76164 3.05988,6.82152 6.82152,6.82152h57.448c3.76336,0 6.82324,-3.05988 6.82324,-6.82152v-33.9872c0,-3.76164 -3.05988,-6.82152 -6.82324,-6.82152z" fill="#472b29"></path>
            <path d="M50.7744,110.69404c1.45168,1.56348 2.4596,1.86792 4.67668,1.86792h57.21064c2.21708,0 2.881,0.01892 4.33268,-1.54284l-33.11,-30.14472z" fill="#64485c"></path>
            <path d="M116.9944,66.61388c-1.45168,-1.37944 -2.4596,-1.64776 -4.67668,-1.64776h-57.21064c-2.21708,0 -2.881,-0.0172 -4.33268,1.36224l33.89948,26.5998z" fill="#a88a9c"></path>
            <path d="M84.8218,94.3592c-0.13932,0 -0.27864,-0.04472 -0.3956,-0.13588l-35.48188,-27.61976c-0.28036,-0.21844 -0.33024,-0.62436 -0.1118,-0.90472c0.22188,-0.28208 0.62436,-0.33024 0.90472,-0.1118l35.07252,27.30156l33.15128,-27.28952c0.27176,-0.22704 0.68284,-0.18576 0.90644,0.08772c0.22704,0.2752 0.18748,0.68112 -0.08772,0.90644l-33.5486,27.61804c-0.11868,0.09804 -0.26316,0.14792 -0.40936,0.14792zM50.30656,112.30052c-0.17716,0 -0.3526,-0.07224 -0.47988,-0.215c-0.23908,-0.26488 -0.215,-0.67424 0.04988,-0.90988l21.98676,-19.64412c0.26488,-0.23736 0.67424,-0.215 0.90988,0.04988c0.23908,0.26488 0.215,0.67424 -0.04988,0.90988l-21.98676,19.64584c-0.12212,0.11008 -0.27692,0.1634 -0.43,0.1634zM117.40548,112.30052c-0.15308,0 -0.30788,-0.05332 -0.43,-0.16512l-21.98676,-19.6424c-0.26488,-0.23736 -0.28896,-0.645 -0.04988,-0.90988c0.23736,-0.26488 0.64672,-0.28724 0.90988,-0.04988l21.98676,19.64412c0.26488,0.23736 0.28896,0.645 0.04988,0.90988c-0.12556,0.14104 -0.30272,0.21328 -0.47988,0.21328z" fill="#472b29"></path>
            <path d="M98.03828,55.74692c-0.00344,5.04476 3.10976,9.81604 8.46412,12.9688v0c0,2.72448 -0.79464,5.74136 -1.78708,7.66088c-0.3526,0.68112 0.19952,1.47404 0.96148,1.39148c4.93984,-0.5418 9.62168,-2.98248 12.1088,-5.42144h2.8208c12.46484,0 22.56812,-7.43212 22.56812,-16.59972c0,-9.1676 -10.105,-16.59972 -22.56812,-16.59972c-12.46312,0 -22.56812,7.43212 -22.56812,16.59972" fill="#e1e0d8"></path>
            <path d="M105.57188,78.63324c-0.60028,0 -1.16444,-0.2924 -1.50672,-0.79292c-0.3784,-0.55212 -0.4214,-1.2642 -0.11352,-1.85932c0.79292,-1.53252 1.59272,-4.17616 1.68216,-6.7854c-5.38532,-3.32648 -8.45896,-8.20612 -8.4538,-13.4504c0,-9.62512 10.5092,-17.45628 23.42812,-17.45628c12.91892,0 23.42812,7.83288 23.42812,17.458c0,9.62856 -10.5092,17.45972 -23.42812,17.45972h-2.4768c-2.51808,2.3306 -7.21884,4.85212 -12.35992,5.41628c-0.06708,0.00688 -0.13416,0.01032 -0.19952,0.01032zM120.60812,40.0072c-11.96948,0 -21.70812,7.05888 -21.70812,15.738c0,0 0,0 0,0.00172c-0.00516,4.75924 2.92572,9.21404 8.03928,12.22576c0.26144,0.1548 0.42312,0.43688 0.42312,0.74132c0,2.6832 -0.7396,5.84456 -1.88168,8.05648l0.19608,0.9976l-0.0946,-0.85484c4.91232,-0.53836 9.36712,-2.99108 11.6014,-5.18236c0.15996,-0.15652 0.37668,-0.24596 0.602,-0.24596h2.82252c11.96948,0 21.70812,-7.0606 21.70812,-15.73972c0,-8.67912 -9.73864,-15.738 -21.70812,-15.738zM98.03828,55.74692h0.0172z" fill="#472b29"></path>
            <path d="M131.06744,49.64608h-6.21436c-0.23736,0 -0.43,-0.19264 -0.43,-0.43c0,-0.23736 0.19264,-0.43 0.43,-0.43h6.21436c0.23736,0 0.43,0.19264 0.43,0.43c0,0.23736 -0.19436,0.43 -0.43,0.43zM122.09076,49.64608h-13.12016c-0.23736,0 -0.43,-0.19264 -0.43,-0.43c0,-0.23736 0.19264,-0.43 0.43,-0.43h13.12016c0.23736,0 0.43,0.19264 0.43,0.43c0,0.23736 -0.19264,0.43 -0.43,0.43zM133.82804,53.78784h-17.26192c-0.23736,0 -0.43,-0.19264 -0.43,-0.43c0,-0.23736 0.19264,-0.43 0.43,-0.43h17.26192c0.23736,0 0.43,0.19264 0.43,0.43c0,0.23736 -0.19264,0.43 -0.43,0.43zM113.8038,53.78784h-8.28524c-0.23736,0 -0.43,-0.19264 -0.43,-0.43c0,-0.23736 0.19264,-0.43 0.43,-0.43h8.28524c0.23736,0 0.43,0.19264 0.43,0.43c0,0.23736 -0.19264,0.43 -0.43,0.43zM126.92224,57.93132h-21.40368c-0.23736,0 -0.43,-0.19264 -0.43,-0.43c0,-0.23736 0.19264,-0.43 0.43,-0.43h21.40368c0.23736,0 0.43,0.19264 0.43,0.43c0,0.23736 -0.19264,0.43 -0.43,0.43zM121.29784,62.76452h-12.32724c-0.23736,0 -0.43,-0.19264 -0.43,-0.43c0,-0.23736 0.19264,-0.43 0.43,-0.43h12.32724c0.23736,0 0.43,0.19264 0.43,0.43c0,0.23736 -0.19264,0.43 -0.43,0.43z" fill="#472b29"></path>
            <path d="M133.07296,58.78616c-4.7544,0 -8.6086,3.8542 -8.6086,8.6086c0,4.7544 3.8542,8.6086 8.6086,8.6086c4.7544,0 8.6086,-3.8542 8.6086,-8.6086c0,-4.7544 -3.8542,-8.6086 -8.6086,-8.6086z" fill="#a88a9c"></path>
            <path d="M133.07468,76.86508c-5.22192,0 -9.47032,-4.2484 -9.47032,-9.47032c0,-5.2202 4.2484,-9.4686 9.47032,-9.4686c5.2202,0 9.4686,4.2484 9.4686,9.4686c-0.00172,5.22192 -4.2484,9.47032 -9.4686,9.47032zM133.07468,59.64616c-4.27248,0 -7.75032,3.47612 -7.75032,7.7486c0,4.27248 3.47612,7.75032 7.75032,7.75032c4.2742,0 7.7486,-3.47612 7.7486,-7.75032c0,-4.2742 -3.47612,-7.7486 -7.7486,-7.7486z" fill="#472b29"></path>
            <path d="M135.27628,65.31012l-0.32508,2.71244c-0.01376,0.09976 -0.02408,0.19608 -0.02924,0.28724c-0.00516,0.09116 -0.0086,0.17716 -0.0086,0.25628c0,0.258 0.10664,0.387 0.31992,0.387c0.29928,0 0.57104,-0.21156 0.817,-0.63468c0.2408,-0.41624 0.3612,-0.89268 0.3612,-1.42588c0,-0.84796 -0.29584,-1.54112 -0.88924,-2.0812c-0.58824,-0.54696 -1.3416,-0.82216 -2.25836,-0.82216c-0.95804,0 -1.763,0.3268 -2.41832,0.98212c-0.65016,0.65016 -0.97696,1.45684 -0.97696,2.41832c0,0.52976 0.11696,1.05092 0.35088,1.56004c0.23736,0.47816 0.56932,0.87376 0.9976,1.18336c0.57104,0.4128 1.28828,0.6192 2.14828,0.6192c0.80668,0 1.64948,-0.20468 2.53184,-0.61404l0.0774,-0.04128l0.26832,0.74476l-0.06192,0.03096c-0.89956,0.43344 -1.83524,0.65016 -2.81048,0.65016c-1.07844,0 -1.97972,-0.25972 -2.70728,-0.78088c-0.5332,-0.3784 -0.95116,-0.86344 -1.25044,-1.45168c-0.29584,-0.6192 -0.44376,-1.25044 -0.44376,-1.89028c0,-1.16788 0.41108,-2.14656 1.23496,-2.93948c0.82388,-0.79292 1.83868,-1.18852 3.04784,-1.18852c1.11284,0 2.04336,0.34056 2.795,1.0234c0.7482,0.67424 1.12144,1.52048 1.12144,2.537c0,0.78604 -0.20296,1.45856 -0.60888,2.01928c-0.40936,0.5676 -0.89096,0.85312 -1.44136,0.85312c-0.44032,0 -0.74132,-0.20812 -0.89956,-0.62436c-0.42312,0.43344 -0.89612,0.65016 -1.41556,0.65016c-0.5676,0 -1.04232,-0.20468 -1.42072,-0.61404c-0.37152,-0.40592 -0.55728,-0.92536 -0.55728,-1.55488c0,-0.67768 0.20812,-1.23668 0.62436,-1.67356c0.41624,-0.4472 0.94084,-0.6708 1.57036,-0.6708c0.57792,0 1.04576,0.2236 1.40008,0.6708l0.07224,-0.57276h0.78432zM134.22192,67.30532c0,-0.31992 -0.10836,-0.58652 -0.32508,-0.80152c-0.2236,-0.21328 -0.49536,-0.31992 -0.817,-0.31992c-0.34744,0 -0.63124,0.13416 -0.85312,0.40248c-0.2236,0.26488 -0.3354,0.60372 -0.3354,1.01824c0,0.35776 0.08944,0.65188 0.26832,0.88408c0.17888,0.23048 0.40936,0.34572 0.69144,0.34572c0.3612,0 0.6794,-0.15308 0.95632,-0.45924c0.27692,-0.30788 0.41452,-0.66392 0.41452,-1.06984z" fill="#472b29"></path>
            <path d="M62.06104,118.87608c3.22672,0 6.02344,0 6.06472,0c3.61372,0 6.5446,-2.86724 6.5446,-6.40528c0,-3.08568 -2.23084,-5.66224 -5.19956,-6.2694c0.0344,-0.27004 0.05676,-0.54352 0.05676,-0.82216c0,-3.6636 -3.03408,-6.63404 -6.77852,-6.63404c-2.2102,0 -4.16756,1.0406 -5.40424,2.64192c-0.31648,-4.07812 -4.03856,-7.224 -8.3936,-6.70284c-3.18372,0.38184 -5.81876,2.78984 -6.40356,5.87724c-0.18748,0.99072 -0.16856,1.95048 0.01892,2.85348c-0.85312,-0.89956 -2.06916,-1.46716 -3.4228,-1.46716c-2.4768,0 -4.49952,1.88684 -4.65948,4.27248c-1.12488,-0.24424 -2.3478,-0.22704 -3.6378,0.24596c-2.46304,0.90472 -4.21744,3.17512 -4.32064,5.74824c-0.1462,3.655 2.838,6.66156 6.53944,6.66156c0.28036,0 1.26936,0 1.4964,0h13.58972M50.96704,118.87608h0.61576" fill="#fdfcef"></path>
            <path d="M68.12576,119.73608h-6.063c-0.47472,0 -0.86,-0.38528 -0.86,-0.86c0,-0.47472 0.38528,-0.86 0.86,-0.86h6.063c3.13384,0 5.6846,-2.48712 5.6846,-5.54528c0,-2.61096 -1.89716,-4.8934 -4.50984,-5.42488c-0.44032,-0.09116 -0.73788,-0.50396 -0.68112,-0.94944c0.02924,-0.23564 0.04988,-0.473 0.04988,-0.71724c0,-3.18544 -2.65396,-5.77404 -5.9168,-5.77404c-1.86964,0 -3.59136,0.84108 -4.72484,2.30996c-0.215,0.28208 -0.58308,0.39732 -0.92708,0.29928c-0.33884,-0.1032 -0.58308,-0.40248 -0.60888,-0.7568c-0.13588,-1.7458 -0.96836,-3.32992 -2.34436,-4.45824c-1.41728,-1.16444 -3.22156,-1.68044 -5.08948,-1.46028c-2.81908,0.33712 -5.14624,2.46992 -5.66224,5.1858c-0.16168,0.8428 -0.1548,1.68904 0.01548,2.51636c0.07912,0.37668 -0.1032,0.75852 -0.44376,0.9374c-0.33884,0.17716 -0.75508,0.10836 -1.0234,-0.172c-0.73272,-0.77228 -1.72516,-1.19712 -2.79672,-1.19712c-2.00208,0 -3.6722,1.52564 -3.8012,3.47096c-0.0172,0.25112 -0.14104,0.47816 -0.34056,0.62952c-0.19952,0.14964 -0.45408,0.20984 -0.69832,0.15308c-1.0922,-0.23392 -2.12592,-0.16856 -3.15792,0.21328c-2.16204,0.79292 -3.6722,2.79156 -3.7582,4.97424c-0.0602,1.49812 0.48332,2.924 1.5308,4.01448c1.08704,1.13004 2.55936,1.7544 4.14864,1.7544h15.08612c0.47472,0 0.86,0.38528 0.86,0.86c0,0.47472 -0.38528,0.86 -0.86,0.86h-15.08612c-2.03132,0 -3.99556,-0.83076 -5.38876,-2.28244c-1.376,-1.42932 -2.08808,-3.3024 -2.01068,-5.2718c0.11352,-2.87068 2.07776,-5.49024 4.88308,-6.52224c1.04576,-0.38356 2.1242,-0.51772 3.21984,-0.41796c0.59168,-2.3908 2.79156,-4.15208 5.37328,-4.15208c0.8428,0 1.67012,0.19264 2.4166,0.5504c0.01548,-0.41108 0.06192,-0.82388 0.14104,-1.2384c0.6536,-3.44172 3.59308,-6.14384 7.1466,-6.56868c2.34092,-0.28208 4.601,0.37152 6.38464,1.83524c1.27968,1.0492 2.18784,2.41144 2.6488,3.94052c1.35536,-1.1094 3.05816,-1.72344 4.8676,-1.72344c4.21056,0 7.6368,3.3626 7.6368,7.49404c0,0.05676 -0.00172,0.11524 -0.00172,0.17372c3.02032,0.94944 5.1428,3.7496 5.1428,6.91784c0,4.00244 -3.32132,7.26184 -7.4046,7.26184zM51.5828,119.73608h-0.61576c-0.47472,0 -0.86,-0.38528 -0.86,-0.86c0,-0.47472 0.38528,-0.86 0.86,-0.86h0.61576c0.47472,0 0.86,0.38528 0.86,0.86c0,0.47472 -0.38528,0.86 -0.86,0.86z" fill="#472b29"></path>
            <path d="M65.20176,109.79276c-0.03096,0 -0.06192,-0.00344 -0.0946,-0.01032c-0.2322,-0.0516 -0.3784,-0.28208 -0.32508,-0.51428c0.06364,-0.2838 0.16168,-0.559 0.28896,-0.82044c1.03888,-2.10012 3.90268,-2.87584 6.37776,-1.72516c0.21672,0.09976 0.31132,0.35432 0.20984,0.56932c-0.09976,0.21672 -0.35948,0.3096 -0.56932,0.20984c-2.06056,-0.95116 -4.41352,-0.35776 -5.246,1.32612c-0.09976,0.19952 -0.17372,0.40936 -0.22188,0.6278c-0.04644,0.20124 -0.2236,0.33712 -0.41968,0.33712zM56.3644,119.73608h-1.89716c-0.47472,0 -0.86,-0.38528 -0.86,-0.86c0,-0.47472 0.38528,-0.86 0.86,-0.86h1.89716c0.47472,0 0.86,0.38528 0.86,0.86c0,0.47472 -0.38528,0.86 -0.86,0.86z" fill="#472b29"></path>
        </g>
    </g>
</svg>