<svg
    x="0px"
    y="0px"
    width="120"
    height="120"
    viewBox="0 0 172 172"
    xmlns="http://www.w3.org/2000/svg"
>
    <g
        fill="none"
        fill-rule="nonzero"
        stroke="none"
        stroke-width="1"
        stroke-linecap="butt"
        stroke-linejoin="miter"
        stroke-miterlimit="10"
        stroke-dasharray=""
        stroke-dashoffset="0"
        font-family="none"
        font-weight="none"
        font-size="none"
        text-anchor="none"
    >
        <path
            d="M0,172v-172h172v172z"
            fill="none"
        >
        </path>
        <g>
            <path
                d="M150.0098,97.5412c1.9522,-3.7066 3.0702,-7.9206 3.0702,-12.4012c0,-11.38812 -7.15348,-21.08204 -17.20172,-24.90216c0,-0.01204 0.00172,-0.02408 0.00172,-0.03784c0,-19.94856 -16.17144,-36.12 -36.12,-36.12c-16.82848,0 -30.92732,11.52572 -34.93836,27.10204c-2.53872,-0.8342 -5.24428,-1.30204 -8.06164,-1.30204c-13.23024,0 -24.11956,9.96396 -25.6108,22.79344c-8.95088,1.89372 -15.6692,9.83324 -15.6692,19.34656c0,10.92372 8.85628,19.78 19.78,19.78c0.30444,0 0.60544,-0.02064 0.90472,-0.03784c-0.00688,0.301 -0.04472,0.59512 -0.04472,0.89784c0,19.47384 15.78616,35.26 35.26,35.26c11.07164,0 20.941,-5.11184 27.40648,-13.09608c3.74616,3.827 8.95432,6.21608 14.73352,6.21608c7.998,0 14.91928,-4.558 18.34552,-11.21096c1.80944,0.5762 3.73412,0.89096 5.73448,0.89096c10.449,0 18.92,-8.471 18.92,-18.92c0,-5.69492 -2.5284,-10.78956 -6.5102,-14.2588z"
                fill="#cecece"
            >
            </path>
            <path
                d="M23.0566,98.04h-17.0366c-0.47472,0 -0.86,-0.38528 -0.86,-0.86c0,-0.47472 0.38528,-0.86 0.86,-0.86h17.0366c0.47472,0 0.86,0.38528 0.86,0.86c0,0.47472 -0.38356,0.86 -0.86,0.86zM28.38,98.04h-1.72c-0.47472,0 -0.86,-0.38528 -0.86,-0.86c0,-0.47472 0.38528,-0.86 0.86,-0.86h1.72c0.47472,0 0.86,0.38528 0.86,0.86c0,0.47472 -0.38356,0.86 -0.86,0.86zM36.96452,101.48h-15.46452c-0.47472,0 -0.86,-0.38528 -0.86,-0.86c0,-0.47472 0.38528,-0.86 0.86,-0.86h15.46452c0.47472,0 0.86,0.38528 0.86,0.86c0,0.47472 -0.38528,0.86 -0.86,0.86zM18.06,101.48h-1.72c-0.47472,0 -0.86,-0.38528 -0.86,-0.86c0,-0.47472 0.38528,-0.86 0.86,-0.86h1.72c0.47472,0 0.86,0.38528 0.86,0.86c0,0.47472 -0.38356,0.86 -0.86,0.86zM12.9,101.48h-3.44c-0.47472,0 -0.86,-0.38528 -0.86,-0.86c0,-0.47472 0.38528,-0.86 0.86,-0.86h3.44c0.47472,0 0.86,0.38528 0.86,0.86c0,0.47472 -0.38356,0.86 -0.86,0.86zM23.22,104.92h-3.44c-0.47472,0 -0.86,-0.38528 -0.86,-0.86c0,-0.47472 0.38528,-0.86 0.86,-0.86h3.44c0.47472,0 0.86,0.38528 0.86,0.86c0,0.47472 -0.38528,0.86 -0.86,0.86zM28.38,89.44c-0.30444,0 -1.41556,0 -1.72,0c-0.47472,0 -0.86,0.38528 -0.86,0.86c0,0.47472 0.38528,0.86 0.86,0.86c0.30444,0 1.41556,0 1.72,0c0.47472,0 0.86,-0.38528 0.86,-0.86c0,-0.47472 -0.38528,-0.86 -0.86,-0.86zM28.38,92.88c-0.30444,0 -8.29556,0 -8.6,0c-0.47472,0 -0.86,0.38528 -0.86,0.86c0,0.47472 0.38528,0.86 0.86,0.86c0.30444,0 8.29556,0 8.6,0c0.47472,0 0.86,-0.38528 0.86,-0.86c0,-0.47472 -0.38528,-0.86 -0.86,-0.86zM36.98,96.32c-0.30444,0 -4.85556,0 -5.16,0c-0.47472,0 -0.86,0.38528 -0.86,0.86c0,0.47472 0.38528,0.86 0.86,0.86c0.30444,0 4.85556,0 5.16,0c0.47472,0 0.86,-0.38528 0.86,-0.86c0,-0.47472 -0.38528,-0.86 -0.86,-0.86z"
                fill="#ffffff"
            >
            </path>
            <g
                fill="#ffffff"
            >
                <path
                    d="M83.42,39.56h-17.2c-0.47472,0 -0.86,-0.38528 -0.86,-0.86c0,-0.47472 0.38528,-0.86 0.86,-0.86h17.2c0.47472,0 0.86,0.38528 0.86,0.86c0,0.47472 -0.38528,0.86 -0.86,0.86zM90.3,39.56h-3.44c-0.47472,0 -0.86,-0.38528 -0.86,-0.86c0,-0.47472 0.38528,-0.86 0.86,-0.86h3.44c0.47472,0 0.86,0.38528 0.86,0.86c0,0.47472 -0.38528,0.86 -0.86,0.86zM98.9,43h-17.2c-0.47472,0 -0.86,-0.38528 -0.86,-0.86c0,-0.47472 0.38528,-0.86 0.86,-0.86h17.2c0.47472,0 0.86,0.38528 0.86,0.86c0,0.47472 -0.38356,0.86 -0.86,0.86zM78.26,43h-1.72c-0.47472,0 -0.86,-0.38528 -0.86,-0.86c0,-0.47472 0.38528,-0.86 0.86,-0.86h1.72c0.47472,0 0.86,0.38528 0.86,0.86c0,0.47472 -0.38528,0.86 -0.86,0.86zM72.885,43h-3.225c-0.47472,0 -0.86,-0.38528 -0.86,-0.86c0,-0.47472 0.38528,-0.86 0.86,-0.86h3.225c0.47472,0 0.86,0.38528 0.86,0.86c0,0.47472 -0.38528,0.86 -0.86,0.86zM88.58,36.12h-8.6c-0.47472,0 -0.86,-0.38528 -0.86,-0.86c0,-0.47472 0.38528,-0.86 0.86,-0.86h8.6c0.47472,0 0.86,0.38528 0.86,0.86c0,0.47472 -0.38356,0.86 -0.86,0.86zM83.42,46.44h-3.44c-0.47472,0 -0.86,-0.38528 -0.86,-0.86c0,-0.47472 0.38528,-0.86 0.86,-0.86h3.44c0.47472,0 0.86,0.38528 0.86,0.86c0,0.47472 -0.38528,0.86 -0.86,0.86z"></path></g><g><path d="M81.7,135.02c0,0 2.69524,0 6.02,0c3.32476,0 6.02,-2.69524 6.02,-6.02c0,-3.06332 -2.2962,-5.56248 -5.2546,-5.9426c0.04816,-0.30788 0.0946,-0.61576 0.0946,-0.9374c0,-3.32476 -2.69524,-6.02 -6.02,-6.02c-1.77504,0 -3.354,0.7826 -4.4548,2.0038c-0.66048,-3.10976 -3.41764,-5.4438 -6.7252,-5.4438c-3.79948,0 -6.88,3.08052 -6.88,6.88c0,0.32852 0.0516,0.64328 0.09632,0.95976c-0.73616,-0.59168 -1.65808,-0.95976 -2.67632,-0.95976c-2.11216,0 -3.8614,1.52564 -4.2226,3.5346c-0.30788,-0.04816 -0.61576,-0.0946 -0.9374,-0.0946c-3.32476,0 -6.02,2.69524 -6.02,6.02c0,3.32476 2.69524,6.02 6.02,6.02c3.32476,0 12.9,0 12.9,0v0.86h12.04z"
                        fill="#fdfcef"
                    >
                    </path>
                <path
                    d="M84.71,127.28c-0.23736,0 -0.43,-0.19264 -0.43,-0.43c0,-2.10356 1.7114,-3.81496 3.81496,-3.81496c0.05848,0.01548 1.26764,-0.00172 2.13968,0.23392c0.22876,0.06192 0.36464,0.29756 0.30272,0.52632c-0.06192,0.23048 -0.29756,0.36636 -0.52632,0.30272c-0.76368,-0.2064 -1.892,-0.2064 -1.91436,-0.20296c-1.63056,0 -2.95668,1.32612 -2.95668,2.95496c0,0.23736 -0.19264,0.43 -0.43,0.43zM73.1,134.16c-0.47496,0 -0.86,0.38504 -0.86,0.86c0,0.47496 0.38504,0.86 0.86,0.86c0.47496,0 0.86,-0.38504 0.86,-0.86c0,-0.47496 -0.38504,-0.86 -0.86,-0.86z"
                    fill="#472b29"
                >
                </path>
                <path
                    d="M87.72,135.88h-6.02c-0.47472,0 -0.86,-0.38528 -0.86,-0.86c0,-0.47472 0.38528,-0.86 0.86,-0.86h6.02c2.84488,0 5.16,-2.31512 5.16,-5.16c0,-2.57312 -1.935,-4.76096 -4.50296,-5.08948c-0.23048,-0.03096 -0.4386,-0.15136 -0.57792,-0.33712c-0.13932,-0.18576 -0.1978,-0.41968 -0.16168,-0.64844c0.03956,-0.26488 0.08256,-0.52976 0.08256,-0.80496c0,-2.84488 -2.31512,-5.16 -5.16,-5.16c-1.462,0 -2.81736,0.6106 -3.81668,1.72c-0.215,0.23908 -0.55212,0.34056 -0.86,0.25456c-0.31304,-0.08428 -0.55212,-0.3354 -0.6192,-0.65188c-0.58652,-2.75888 -3.0616,-4.76268 -5.88412,-4.76268c-3.3196,0 -6.02,2.7004 -6.02,6.02c0,0.24596 0.03612,0.4816 0.07052,0.71896c0.04988,0.34916 -0.10836,0.75336 -0.41624,0.9288c-0.30788,0.17544 -0.68112,0.20296 -0.95632,-0.0172c-0.6278,-0.50396 -1.36568,-0.77056 -2.13796,-0.77056c-1.66152,0 -3.08224,1.18852 -3.37636,2.82768c-0.08256,0.45924 -0.50912,0.76712 -0.97868,0.6966c-0.26488,-0.04128 -0.52976,-0.08428 -0.80496,-0.08428c-2.84488,0 -5.16,2.31512 -5.16,5.16c0,2.84488 2.31512,5.16 5.16,5.16h12.9c0.47472,0 0.86,0.38528 0.86,0.86c0,0.47472 -0.38528,0.86 -0.86,0.86h-12.9c-3.79432,0 -6.88,-3.08568 -6.88,-6.88c0,-3.79432 3.08568,-6.88 6.88,-6.88c0.10148,0 0.19952,0.00344 0.29928,0.01032c0.71208,-2.03992 2.64364,-3.45032 4.86072,-3.45032c0.60028,0 1.18508,0.10492 1.73892,0.3096c0.2838,-4.01276 3.6378,-7.1896 7.72108,-7.1896c3.14932,0 5.96152,1.93844 7.14316,4.77128c1.1696,-0.85656 2.58344,-1.33128 4.03684,-1.33128c3.79432,0 6.88,3.08568 6.88,6.88c0,0.08256 -0.00172,0.1634 -0.00688,0.24424c2.99796,0.77056 5.16688,3.48644 5.16688,6.63576c0,3.79432 -3.08568,6.88 -6.88,6.88z"
                    fill="#472b29"
                >
                </path>
                <path
                    d="M78.26,134.16c-0.27348,0 -1.44652,0 -1.72,0c-0.47472,0 -0.86,0.38528 -0.86,0.86c0,0.47472 0.38528,0.86 0.86,0.86c0.27348,0 1.44652,0 1.72,0c0.47472,0 0.86,-0.38528 0.86,-0.86c0,-0.47472 -0.38528,-0.86 -0.86,-0.86z"
                    fill="#472b29"
                >
                </path>
                </g>
                <g>
                    <path
                        d="M67.91764,105.72324c-0.46612,0 -0.93224,-0.01376 -1.39836,-0.03956c-0.26316,-2.78468 -1.93672,-4.90888 -4.50812,-5.72932l-0.17888,-0.05676l-0.05676,-0.00172c-0.5418,-0.15308 -1.09908,-0.23048 -1.65636,-0.23048c-1.87136,0 -3.67048,0.87376 -4.96908,2.40284c-1.95564,-1.21432 -3.71348,-2.68836 -5.25632,-4.4032c1.8662,-2.32888 2.14312,-4.7644 0.8256,-7.25668c-1.20744,-2.24976 -3.12352,-3.38668 -5.70008,-3.38668c-0.21844,0 -0.44204,0.0086 -0.67252,0.02408c-0.52804,-2.25492 -0.73444,-4.55456 -0.60888,-6.82496c3.04096,-0.31304 4.98284,-1.86448 5.7964,-4.61992c0.7826,-2.66256 0.03956,-4.96736 -2.20848,-6.85764c1.20916,-1.97112 2.67976,-3.73412 4.3946,-5.27696c1.37944,1.161 2.82252,1.74924 4.29656,1.74924c1.00448,0 2.0296,-0.2752 3.04612,-0.81528c2.5112,-1.3158 3.64468,-3.5088 3.36088,-6.52224c1.80084,-0.42484 3.64984,-0.63984 5.51088,-0.63984c0.44204,0 0.88752,0.01204 1.333,0.03612c0.27176,3.26284 1.95048,5.29932 4.99488,6.04064c0.53492,0.129 1.06124,0.19264 1.56864,0.19264c1.90232,0 3.57416,-0.86344 4.97252,-2.56452c1.95564,1.21432 3.71348,2.69696 5.246,4.429c-1.97456,2.34608 -2.30308,4.81428 -0.97868,7.3444c1.1954,2.28244 3.10976,3.44172 5.69148,3.44172c0.2666,0 0.54008,-0.01376 0.82388,-0.03784c0.43,1.45856 0.73444,5.21848 0.54524,6.83356c-3.05816,0.30272 -5.02068,1.85244 -5.848,4.61304c-0.77056,2.62128 -0.04472,4.9192 2.15172,6.84216c-1.21432,1.93844 -2.70556,3.69284 -4.43416,5.2202c-1.37256,-1.1008 -2.80016,-1.66152 -4.23808,-1.66152c-1.14896,0 -2.31168,0.35776 -3.45548,1.06468c-2.1414,1.31064 -3.13212,3.35228 -2.94292,6.0716c-1.84384,0.41796 -3.64812,0.6192 -5.44724,0.6192zM67.90904,75.766c-2.49056,0 -4.67496,1.59616 -5.4352,3.96976c-0.95976,2.99796 0.70004,6.2178 3.698,7.17928c0.56588,0.1806 1.1524,0.27176 1.74236,0.27176c2.49056,0 4.67496,-1.59616 5.4352,-3.97148c0.46612,-1.4534 0.33712,-2.99968 -0.3612,-4.35504c-0.69832,-1.35536 -1.8834,-2.3564 -3.3368,-2.82252c-0.56588,-0.1806 -1.1524,-0.27176 -1.74236,-0.27176z"
                        fill="#a88a9c"
                    >
                    </path>
                    <path
                        d="M67.93828,58.44216c0.08944,0 0.17888,0 0.27004,0.00172c0.72928,3.96632 3.4658,5.48164 5.7792,6.0458c0.62092,0.14792 1.24012,0.2236 1.84212,0.2236c1.39148,0 3.31444,-0.40936 5.16516,-2.20848c1.25044,0.85484 2.41488,1.83868 3.483,2.94464c-2.1156,3.0874 -1.47576,5.91336 -0.47472,7.82772c1.37772,2.6316 3.66532,4.042 6.61856,4.085c0.21156,1.26076 0.3784,3.19748 0.36464,4.54252c-3.69972,0.72756 -5.23052,3.22672 -5.86176,5.33028c-0.57792,1.96596 -0.67252,4.73 1.75784,7.34268c-0.87204,1.26592 -1.86792,2.43896 -2.97388,3.5002c-1.33988,-0.87204 -2.72964,-1.31408 -4.1452,-1.31408c-1.376,0 -2.752,0.41968 -4.07984,1.24012c-1.62024,0.99244 -3.44,2.84316 -3.54664,6.13008c-1.3932,0.25628 -2.80704,0.387 -4.21916,0.387c-0.1204,0 -0.24252,0 -0.36464,-0.00172c-0.5934,-2.71932 -2.49916,-4.85556 -5.18752,-5.71384l-0.40592,-0.1204h-0.05848c-0.5848,-0.1462 -1.18164,-0.22016 -1.7802,-0.22016c-1.892,0 -3.7152,0.74132 -5.14968,2.05712c-1.26764,-0.86172 -2.44756,-1.85072 -3.51912,-2.94808c1.98488,-3.05472 1.32612,-5.8394 0.32508,-7.73656c-1.36224,-2.53872 -3.59136,-3.9216 -6.4586,-4.01104c-0.28896,-1.51532 -0.42656,-3.03752 -0.41108,-4.55972c3.65672,-0.74476 5.16344,-3.2336 5.78092,-5.3234c0.58996,-2.0038 0.68284,-4.8074 -1.80944,-7.38912c0.8514,-1.26248 1.82836,-2.43724 2.92228,-3.51052c1.34676,0.91504 2.75888,1.376 4.214,1.376c1.204,0 2.41832,-0.32164 3.59652,-0.94772c1.90576,-0.9976 4.02996,-2.93776 4.05748,-6.62716c1.40008,-0.2666 2.83112,-0.40248 4.26904,-0.40248v0M67.9142,88.3908c3.01688,0 5.66224,-1.93156 6.58244,-4.8074c0.56244,-1.75956 0.40764,-3.63264 -0.4386,-5.27352c-0.84624,-1.64088 -2.28072,-2.8552 -4.03856,-3.41764c-0.68456,-0.21844 -1.39492,-0.33024 -2.11044,-0.33024c-3.01688,0 -5.66224,1.93156 -6.58072,4.8074c-0.56244,1.75956 -0.40764,3.63264 0.4386,5.27352c0.84624,1.64088 2.28072,2.8552 4.04028,3.41764c0.68284,0.21844 1.39148,0.33024 2.107,0.33024M67.93828,56.03416c-2.12248,0 -4.2054,0.26316 -6.21952,0.77916c-0.35948,0.086 -0.58652,0.42656 -0.53836,0.79636c0.36464,2.70556 -0.51084,4.59068 -2.68492,5.7276c-0.84452,0.44892 -1.6684,0.67252 -2.48024,0.67252c-1.29688,0 -2.55936,-0.57276 -3.8098,-1.71484c-0.13932,-0.129 -0.31476,-0.19264 -0.48848,-0.19264c-0.17028,0 -0.33884,0.0602 -0.47644,0.17888c-2.04852,1.78192 -3.7926,3.87172 -5.16516,6.19888c-0.19264,0.30444 -0.12384,0.71724 0.172,0.94256c2.11388,1.634 2.8036,3.54664 2.12936,5.83768c-0.7052,2.38736 -2.37876,3.62576 -5.14108,3.79604c-0.35948,0.01548 -0.65532,0.31132 -0.67596,0.6708c-0.19608,2.68148 0.05504,5.375 0.7138,8.01004c0.09288,0.32508 0.38012,0.5504 0.7052,0.5504c0.0258,0 0.0516,-0.00172 0.0774,-0.00344c0.33368,-0.03784 0.6536,-0.05676 0.96148,-0.05676c2.13624,0 3.64984,0.90988 4.6354,2.74512c1.14036,2.16204 0.8342,4.19336 -0.93912,6.2264c-0.23908,0.2666 -0.23736,0.66908 -0.00688,0.94428c1.7802,2.04852 3.84936,3.78572 6.16448,5.16516c0.03956,0.0258 0.08256,0.03784 0.12556,0.0516c0.06708,0.02236 0.13932,0.03268 0.21156,0.03268c0.21672,0 0.44204,-0.09116 0.58996,-0.24768c0.06364,-0.0516 0.10148,-0.09804 0.14104,-0.14448c1.1008,-1.37944 2.61784,-2.13108 4.1796,-2.13108c0.48504,0 0.97524,0.07224 1.45684,0.22016c0.00516,0 0.0086,0 0.01376,0c0.01892,0 0.03612,0.00516 0.05504,0.01032c2.14484,0.68628 3.50364,2.46992 3.67736,4.77128c0.04128,0.42828 0.24596,0.96664 1.0492,1.00964c0.516,0.03096 1.03028,0.04644 1.54628,0.04644c1.94016,0 3.87,-0.22016 5.75684,-0.65532c0.1032,-0.0258 0.20984,-0.06364 0.29756,-0.08084l0.09288,-0.03096c0.33712,-0.09288 0.56072,-0.42312 0.53148,-0.77572c-0.26832,-2.451 0.4902,-4.19508 2.34436,-5.32856c0.95632,-0.59168 1.89372,-0.88752 2.82424,-0.88752c1.2642,0 2.51292,0.54524 3.77196,1.63744c0.13416,0.11352 0.301,0.17028 0.46784,0.17028c0.17028,0 0.34056,-0.05848 0.47816,-0.17544c2.06572,-1.763 3.81496,-3.82872 5.20128,-6.12836c0.18232,-0.30788 0.1204,-0.70692 -0.16512,-0.92708c-2.06744,-1.66668 -2.74684,-3.57588 -2.08292,-5.83424c0.71208,-2.3736 2.3994,-3.61888 5.16172,-3.78916c0.32336,-0.01376 0.59168,-0.25972 0.65532,-0.57104c0.37152,-1.71484 -0.05676,-6.80604 -0.68456,-8.24912c-0.11868,-0.25972 -0.38184,-0.42484 -0.65876,-0.42484c-0.03096,0 -0.06364,0.00172 -0.0946,0.00688c-0.36636,0.04472 -0.71724,0.0688 -1.05264,0.0688c-2.12592,0 -3.64296,-0.9202 -4.6268,-2.795c-1.14552,-2.18784 -0.78088,-4.24668 1.07844,-6.29004c0.25284,-0.27348 0.2666,-0.68284 0.02408,-0.96148c-1.78192,-2.08292 -3.85796,-3.8356 -6.18168,-5.21848c-0.11524,-0.07224 -0.24424,-0.10664 -0.37324,-0.10664c-0.22188,0 -0.4386,0.10492 -0.5762,0.29928c-1.2126,1.61164 -2.64536,2.42176 -4.27764,2.42176c-0.41452,0 -0.8428,-0.0516 -1.28312,-0.15652c-2.63332,-0.64156 -3.96804,-2.3822 -4.10392,-5.3578c-0.02236,-0.37324 -0.30788,-0.66564 -0.67768,-0.68972c-0.61232,-0.043 -1.2212,-0.06364 -1.82664,-0.06364zM67.9142,85.9828c-0.4558,0 -0.91848,-0.07052 -1.376,-0.215c-2.37016,-0.75852 -3.67736,-3.2938 -2.91884,-5.66396c0.61232,-1.91436 2.3822,-3.13384 4.28796,-3.13384c0.4558,0 0.91848,0.07052 1.376,0.215c2.37016,0.75852 3.67736,3.2938 2.91884,5.66396c-0.61232,1.91436 -2.3822,3.13384 -4.28796,3.13384z"
                        fill="#472b29"
                    >
                    </path>
                    <path
                        d="M72.25032,67.9142c-7.47856,-2.39252 -15.50752,1.74408 -17.90004,9.22264c-2.39252,7.47856 1.74408,15.50752 9.22264,17.90004c7.47856,2.39252 15.50752,-1.74408 17.90004,-9.22264c2.39252,-7.47684 -1.74408,-15.50752 -9.22264,-17.90004zM65.12092,90.19336c-4.80396,-1.53768 -7.46652,-6.70284 -5.92884,-11.5068c1.53768,-4.80396 6.70284,-7.46652 11.5068,-5.92884c4.80396,1.53768 7.46652,6.70284 5.92884,11.5068c-1.53596,4.80568 -6.70112,7.46652 -11.5068,5.92884z"
                        fill="#7777ab"
                    >
                    </path>
                    <path
                        d="M67.90388,96.14456c-1.22636,0 -2.45444,-0.1548 -3.655,-0.46612c-0.23048,-0.0602 -0.36808,-0.29412 -0.3096,-0.5246c0.0602,-0.22876 0.28896,-0.36636 0.5246,-0.3096c2.55936,0.66048 5.2374,0.57276 7.75204,-0.25456c0.22532,-0.08084 0.46784,0.04644 0.5418,0.27348c0.07396,0.22532 -0.04816,0.46784 -0.27348,0.5418c-1.48952,0.49364 -3.03408,0.7396 -4.58036,0.7396zM62.3672,95.0214c-0.05676,0 -0.1118,-0.01032 -0.16684,-0.0344c-5.88068,-2.48024 -9.46,-8.42112 -8.90444,-14.78684c0.02064,-0.23908 0.22876,-0.42312 0.46612,-0.39216c0.23564,0.02064 0.41108,0.22876 0.39044,0.46612c-0.52288,5.99076 2.84488,11.5842 8.38156,13.91996c0.21844,0.09288 0.32164,0.344 0.22876,0.56244c-0.0688,0.16684 -0.22704,0.26488 -0.3956,0.26488zM74.78732,94.36608c-0.15136,0 -0.29756,-0.08084 -0.37668,-0.22188c-0.11524,-0.20812 -0.03956,-0.46956 0.16856,-0.5848c1.09736,-0.60716 2.10528,-1.35364 2.99452,-2.22396c0.172,-0.16684 0.44376,-0.16168 0.60888,0.00688c0.16684,0.17028 0.1634,0.44204 -0.00688,0.60888c-0.94428,0.92364 -2.01412,1.71828 -3.18028,2.36156c-0.06708,0.03612 -0.1376,0.05332 -0.20812,0.05332zM67.90388,91.06024c-0.96492,0 -1.94532,-0.14792 -2.91368,-0.45752v0c-5.03272,-1.61336 -7.81568,-7.01588 -6.20748,-12.0486c1.61164,-5.03272 7.0176,-7.81224 12.0486,-6.20748c5.03272,1.61336 7.81568,7.01588 6.20748,12.0486c-1.30032,4.06608 -5.07916,6.665 -9.13492,6.665zM65.25336,89.784c4.57692,1.46888 9.49956,-1.07156 10.96672,-5.6502c1.46544,-4.58036 -1.06984,-9.49956 -5.6502,-10.96672c-4.58208,-1.46716 -9.50128,1.06984 -10.96672,5.6502c-1.46544,4.58036 1.06812,9.50128 5.6502,10.96672zM79.6016,90.03684c-0.08428,0 -0.172,-0.0258 -0.24596,-0.0774c-0.19436,-0.13588 -0.24252,-0.40248 -0.10664,-0.59856c0.7826,-1.12316 1.3932,-2.36156 1.8146,-3.67736c1.4878,-4.64916 0.3784,-9.80056 -2.89304,-13.44696c-0.15824,-0.17716 -0.14276,-0.44892 0.03268,-0.60888c0.17716,-0.15652 0.4472,-0.14448 0.60716,0.0344c3.4744,3.87344 4.65088,9.34648 3.07192,14.2846c-0.4472,1.39836 -1.09564,2.71072 -1.92812,3.90612c-0.08256,0.1204 -0.21844,0.18404 -0.3526,0.18404zM54.35028,77.56684c-0.043,0 -0.08772,-0.00688 -0.13072,-0.02064c-0.22532,-0.07224 -0.35088,-0.31476 -0.27864,-0.54008c1.19196,-3.72552 3.76852,-6.7682 7.25668,-8.56388c3.48816,-1.79568 7.45964,-2.12764 11.18516,-0.9374c0.8944,0.28552 1.76644,0.66048 2.59376,1.11112c0.20812,0.11352 0.28552,0.37668 0.17028,0.5848c-0.11524,0.20812 -0.37668,0.28036 -0.58308,0.172c-0.77916,-0.42656 -1.5996,-0.77916 -2.4424,-1.04748c-3.50364,-1.12144 -7.24464,-0.8084 -10.52984,0.88236c-3.28348,1.68904 -5.70868,4.55284 -6.83012,8.06164c-0.0602,0.1806 -0.22876,0.29756 -0.41108,0.29756zM77.39656,71.28712c-0.1032,0 -0.20468,-0.03612 -0.28724,-0.10836c-0.38872,-0.34744 -0.79292,-0.6708 -1.20228,-0.96148c-0.19436,-0.1376 -0.23908,-0.40592 -0.1032,-0.60028c0.13932,-0.19092 0.40764,-0.23908 0.60028,-0.1032c0.43516,0.3096 0.86688,0.6536 1.27796,1.02168c0.17716,0.15996 0.19264,0.43 0.0344,0.60888c-0.08428,0.0946 -0.20296,0.14276 -0.31992,0.14276z"
                        fill="#472b29"
                    >
                    </path>
                    <path
                        d="M81.2528,86.66908c-0.07224,0 -0.14448,-0.01892 -0.21328,-0.05504l-4.48232,-2.54904c-0.2064,-0.11696 -0.27864,-0.38184 -0.16168,-0.58824c0.11524,-0.20812 0.38012,-0.2752 0.58652,-0.16168l4.48232,2.54904c0.2064,0.11696 0.27864,0.38184 0.16168,0.58824c-0.07912,0.13932 -0.2236,0.21672 -0.37324,0.21672zM82.0096,83.248c-0.043,0 -0.086,-0.00688 -0.129,-0.02064l-4.91748,-1.55488c-0.22704,-0.07224 -0.3526,-0.31304 -0.28036,-0.53836c0.07224,-0.22532 0.31476,-0.35088 0.53836,-0.28036l4.91748,1.55488c0.22704,0.07224 0.3526,0.31304 0.28036,0.53836c-0.05676,0.18404 -0.22704,0.301 -0.40936,0.301zM70.20868,73.06732c-0.07396,0 -0.14964,-0.01892 -0.21844,-0.05848c-0.20468,-0.1204 -0.27348,-0.38528 -0.15136,-0.58996l2.61612,-4.44448c0.1204,-0.2064 0.38528,-0.27176 0.58824,-0.15308c0.20468,0.1204 0.27348,0.38528 0.15136,0.58996l-2.61612,4.44448c-0.07912,0.1376 -0.2236,0.21156 -0.3698,0.21156zM64.94892,73.04152c-0.0258,0 -0.0516,-0.00172 -0.07568,-0.00688c-0.23392,-0.04128 -0.39044,-0.26488 -0.34744,-0.4988l0.9116,-5.07572c0.043,-0.23564 0.27176,-0.39216 0.4988,-0.34744c0.23392,0.04128 0.39044,0.26488 0.34744,0.4988l-0.9116,5.07572c-0.03956,0.20812 -0.22016,0.35432 -0.42312,0.35432zM67.65104,72.6786c-0.04472,0 -0.08944,-0.00688 -0.13416,-0.02236c-0.22532,-0.07396 -0.34916,-0.31648 -0.2752,-0.5418l1.60648,-4.90028c0.07396,-0.22704 0.3182,-0.34916 0.54352,-0.27348c0.22532,0.07396 0.34916,0.31648 0.2752,0.5418l-1.60648,4.90028c-0.0602,0.1806 -0.22876,0.29584 -0.40936,0.29584zM81.6226,79.88712c-0.02924,0 -0.05848,-0.00344 -0.08772,-0.0086l-5.04992,-1.0492c-0.2322,-0.04816 -0.38184,-0.27692 -0.33368,-0.50912c0.04816,-0.23392 0.28036,-0.37324 0.5074,-0.33368l5.04992,1.0492c0.2322,0.04816 0.38184,0.27692 0.33368,0.50912c-0.04128,0.20296 -0.22016,0.34228 -0.41968,0.34228zM59.98672,93.6282c-0.11352,0 -0.22876,-0.04472 -0.31304,-0.13416c-0.1634,-0.17372 -0.1548,-0.44548 0.01892,-0.60888l3.75304,-3.53804c0.17372,-0.16512 0.44548,-0.1548 0.60888,0.0172c0.1634,0.17372 0.1548,0.44548 -0.01892,0.60888l-3.75304,3.53804c-0.08428,0.0774 -0.1892,0.11696 -0.29584,0.11696zM56.9406,90.6612c-0.18232,0 -0.3526,-0.11696 -0.40936,-0.301c-0.07224,-0.22704 0.05332,-0.46784 0.28036,-0.53836l4.91748,-1.55144c0.22876,-0.06708 0.46784,0.05504 0.53836,0.28036c0.07224,0.22704 -0.05332,0.46784 -0.28036,0.53836l-4.91748,1.55144c-0.043,0.01376 -0.086,0.02064 -0.129,0.02064zM54.98152,87.66324c-0.20984,0 -0.39216,-0.15308 -0.42484,-0.36636c-0.03612,-0.23564 0.12556,-0.45408 0.3612,-0.48848l5.0998,-0.7654c0.23392,-0.02924 0.45408,0.12556 0.48848,0.3612c0.0344,0.23564 -0.12556,0.45408 -0.3612,0.48848l-5.0998,0.7654c-0.02064,0.00344 -0.04128,0.00516 -0.06364,0.00516z"
                        fill="#472b29"
                    >
                    </path>
                    <g
                        fill="#472b29"
                    >
                    <path
                        d="M54.04068,84.71344c-0.23564,0 -0.42828,-0.1892 -0.43,-0.42484c-0.00172,-0.23736 0.18748,-0.43172 0.42484,-0.43516l5.15656,-0.06192c0.00172,0 0.00344,0 0.00516,0c0.23564,0 0.42828,0.1892 0.43,0.42484c0.00172,0.23736 -0.18748,0.43172 -0.42484,0.43516l-5.15656,0.06192c-0.00172,0 -0.00344,0 -0.00516,0z"></path></g><g><path d="M115.04392,126.93428c-0.31304,0 -0.6278,-0.0086 -0.94084,-0.02408c-0.26144,-2.25664 -1.67184,-4.00072 -3.81496,-4.687l-0.17888,-0.05676l-0.04988,-0.00172c-0.45408,-0.12384 -0.91848,-0.18576 -1.3846,-0.18576c-1.53768,0 -3.01344,0.68628 -4.10736,1.89888c-1.462,-0.92536 -2.79156,-2.03992 -3.96976,-3.32476c1.48264,-1.93328 1.67528,-3.95428 0.58308,-6.02516c-1.02856,-1.9178 -2.66256,-2.88788 -4.859,-2.88788c-0.12212,0 -0.24768,0.00344 -0.37496,0.0086c-0.38184,-1.69936 -0.53836,-3.43656 -0.46096,-5.15312c2.47508,-0.30788 4.06436,-1.62024 4.74032,-3.91128c0.45408,-1.54112 0.49364,-3.74444 -1.73032,-5.71212c0.9288,-1.4792 2.03648,-2.80876 3.31616,-3.9818c1.1266,0.903 2.30136,1.35708 3.50708,1.35708c0.85828,0 1.73032,-0.2322 2.59204,-0.68972c1.4534,-0.76024 3.09084,-2.3048 2.87928,-5.35608c1.4018,-0.31648 2.83456,-0.47472 4.2742,-0.47472c0.29584,0 0.59168,0.00688 0.88924,0.02064c0.35088,3.30068 2.4682,4.515 4.23292,4.94328c0.4558,0.10836 0.903,0.16512 1.33472,0.16512c1.56864,0 2.9498,-0.68112 4.1108,-2.0296c1.46716,0.93052 2.78984,2.04852 3.956,3.34024c-1.93844,2.42004 -1.47232,4.63368 -0.70692,6.09912c1.01824,1.94704 2.65052,2.9326 4.8504,2.9326c0.1634,0 0.33196,-0.00516 0.50396,-0.0172c0.28724,1.16788 0.52632,3.82356 0.4128,5.15656c-3.09428,0.38012 -4.31376,2.30824 -4.79364,3.90612c-0.63984,2.17752 -0.07224,4.09016 1.6856,5.69836c-0.93052,1.4534 -2.0554,2.7778 -3.35228,3.94224c-1.11628,-0.85484 -2.279,-1.29172 -3.45548,-1.29172c-0.9804,0 -1.97112,0.30444 -2.9412,0.903c-1.77676,1.08704 -2.62472,2.7606 -2.52152,4.9794c-1.41556,0.30788 -2.82252,0.45924 -4.22604,0.45924zM115.04392,102.4346c-2.1328,0 -4.00416,1.3674 -4.65432,3.40044c-0.39732,1.24528 -0.28724,2.56796 0.3096,3.72896c0.59684,1.161 1.61336,2.01928 2.85692,2.4166c0.48332,0.1548 0.98556,0.23392 1.49124,0.23392c2.1328,0 4.00244,-1.36568 4.6526,-3.39872c0.82216,-2.56796 -0.60028,-5.32512 -3.1648,-6.14728c-0.48504,-0.1548 -0.98556,-0.23392 -1.49124,-0.23392z"
                        fill="#a88a9c"
                    >
                    </path>
                    <path
                        d="M114.93556,88.92916c0.60028,2.55936 2.322,4.28452 4.97596,4.93296c0.5418,0.129 1.08188,0.19436 1.6082,0.19436c1.15584,0 2.72792,-0.31992 4.26216,-1.68388c0.79808,0.56932 1.55144,1.20572 2.2532,1.90576c-1.27796,2.07776 -1.3674,4.35332 -0.22016,6.5446c1.14896,2.193 3.0186,3.41764 5.4266,3.56212c0.12556,0.88408 0.21672,2.04164 0.23048,2.94292c-2.3822,0.59168 -4.0506,2.17408 -4.773,4.58036c-0.48676,1.65636 -0.5848,3.95772 1.2986,6.16104c-0.58136,0.81184 -1.22808,1.57208 -1.93328,2.27556c-1.075,-0.63812 -2.18956,-0.95976 -3.32992,-0.95976c-1.20916,0 -2.41144,0.36464 -3.56556,1.07844c-1.36396,0.83592 -2.8896,2.36156 -3.09256,5.01552c-0.98728,0.1634 -1.98488,0.24768 -2.98076,0.2494c-0.59856,-2.21364 -2.22396,-3.94052 -4.5064,-4.67152l-0.36808,-0.1032h-0.03784c-0.49536,-0.1204 -1.00104,-0.1806 -1.50844,-0.1806c-1.54456,0 -3.03408,0.56072 -4.24324,1.5652c-0.81528,-0.57448 -1.58068,-1.21776 -2.28932,-1.9178c1.50844,-2.54904 0.94084,-4.86932 0.09632,-6.47064c-1.13692,-2.11732 -2.96012,-3.31444 -5.2976,-3.4916c-0.16856,-0.98556 -0.258,-1.97284 -0.2666,-2.96356c2.35812,-0.602 4.00416,-2.1844 4.70936,-4.57348c0.67252,-2.28588 0.1978,-4.43588 -1.34332,-6.2006c0.56588,-0.80668 1.19884,-1.56692 1.892,-2.27384c1.08188,0.66736 2.21708,1.00276 3.38668,1.00276c1.0578,0 2.12076,-0.28036 3.14416,-0.82388c2.17752,-1.14036 3.39872,-3.04096 3.53804,-5.43864c0.9632,-0.16512 1.94704,-0.25112 2.93432,-0.258M115.04736,113.4168c2.65912,0 4.98972,-1.7028 5.79984,-4.23636c1.0234,-3.1992 -0.74648,-6.63404 -3.94568,-7.65916c-0.60372,-0.19264 -1.22808,-0.29068 -1.85932,-0.29068c-2.65912,0 -4.98972,1.7028 -5.79984,4.23636c-1.0234,3.1992 0.74648,6.63404 3.94568,7.65916c0.60372,0.19436 1.2298,0.29068 1.85932,0.29068M115.06972,86.51944c-1.73548,0 -3.44,0.215 -5.08776,0.6364c-0.29412,0.07052 -0.47988,0.34916 -0.44032,0.65188c0.29756,2.21364 -0.41796,3.75476 -2.19472,4.68356c-0.68972,0.36636 -1.36568,0.5504 -2.02788,0.5504c-1.06124,0 -2.09324,-0.46784 -3.11492,-1.4018c-0.11352,-0.10492 -0.25628,-0.15652 -0.39904,-0.15652c-0.13932,0 -0.27692,0.04816 -0.39044,0.1462c-1.67528,1.45684 -3.10116,3.16652 -4.2226,5.07056c-0.15652,0.2494 -0.10148,0.58652 0.14104,0.77056c1.7286,1.33644 2.29276,2.89992 1.74064,4.773c-0.5762,1.9522 -1.94532,2.96528 -4.20368,3.10288c-0.29412,0.01204 -0.53664,0.25284 -0.55212,0.54868c-0.15996,2.19128 0.04472,4.3946 0.58308,6.54976c0.07568,0.26488 0.31132,0.44892 0.5762,0.44892c0.02064,0 0.043,0 0.06536,-0.00344c0.27176,-0.03096 0.5332,-0.04644 0.78432,-0.04644c1.74752,0 2.98764,0.74476 3.7926,2.24632c0.93224,1.76816 0.68284,3.42968 -0.76884,5.0912c-0.19608,0.21844 -0.19436,0.54696 -0.00516,0.77228c1.45684,1.67528 3.1476,3.096 5.04132,4.22432c0.03268,0.01892 0.06708,0.03096 0.1032,0.04128c0.05504,0.0172 0.11352,0.0258 0.17372,0.0258c0.17716,0 0.36292,-0.07396 0.48332,-0.20296c0.0516,-0.04128 0.08428,-0.07912 0.11524,-0.11868c0.89956,-1.12832 2.1414,-1.74236 3.41764,-1.74236c0.39732,0 0.79636,0.0602 1.19196,0.1806c0.00344,0 0.0086,0 0.01204,0c0.01548,0 0.02924,0.00344 0.043,0.0086c1.7544,0.56244 2.8638,2.01928 3.00656,3.90268c0.03268,0.34916 0.20124,0.78948 0.85828,0.8256c0.4214,0.0258 0.8428,0.03784 1.26248,0.03784c1.58756,0 3.1648,-0.1806 4.70764,-0.53492c0.08428,-0.02236 0.172,-0.0516 0.24424,-0.06708l0.07568,-0.02408c0.2752,-0.07568 0.45924,-0.34572 0.43516,-0.63468c-0.22016,-2.00552 0.40076,-3.42968 1.91608,-4.35676c0.7826,-0.48332 1.54972,-0.72584 2.30996,-0.72584c1.03372,0 2.05368,0.4472 3.08396,1.33816c0.11008,0.09288 0.24596,0.13932 0.38356,0.13932c0.13932,0 0.27864,-0.04816 0.39044,-0.14276c1.68904,-1.44136 3.12008,-3.1304 4.25356,-5.01208c0.14792,-0.25112 0.09804,-0.57792 -0.13416,-0.75852c-1.69076,-1.36224 -2.24632,-2.924 -1.7028,-4.77128c0.58308,-1.94016 1.96252,-2.96012 4.22088,-3.09772c0.26488,-0.01204 0.48332,-0.21328 0.53664,-0.46612c0.30272,-1.4018 -0.04644,-5.56592 -0.559,-6.74412c-0.09632,-0.21328 -0.31304,-0.34744 -0.53836,-0.34744c-0.0258,0 -0.0516,0.00172 -0.0774,0.00516c-0.29928,0.03784 -0.58652,0.05676 -0.86172,0.05676c-1.7372,0 -2.97904,-0.75164 -3.78228,-2.28588c-0.93568,-1.7888 -0.63984,-3.4744 0.88236,-5.1428c0.2064,-0.2236 0.21672,-0.559 0.01892,-0.78776c-1.45684,-1.70452 -3.15448,-3.13728 -5.05508,-4.26732c-0.0946,-0.05848 -0.20124,-0.086 -0.30444,-0.086c-0.1806,0 -0.35776,0.08428 -0.47128,0.24424c-0.99244,1.31752 -2.16204,1.98144 -3.49848,1.98144c-0.33884,0 -0.68972,-0.043 -1.0492,-0.129c-2.15344,-0.5246 -3.24564,-1.94704 -3.35572,-4.38084c-0.01892,-0.30616 -0.25112,-0.54352 -0.55384,-0.56416c-0.50912,-0.03612 -1.0062,-0.05504 -1.49984,-0.05504zM115.04736,111.01052c-0.37152,0 -0.75164,-0.05676 -1.12488,-0.17716c-1.93844,-0.62092 -3.00656,-2.69352 -2.38564,-4.63196c0.50052,-1.5652 1.94876,-2.5628 3.50708,-2.5628c0.37152,0 0.75164,0.05676 1.12488,0.17716c1.93844,0.62092 3.00656,2.6918 2.38564,4.63196c-0.50052,1.56348 -1.94704,2.5628 -3.50708,2.5628z"
                        fill="#472b29"
                    >
                    </path>
                    <path
                        d="M118.594,96.23572c-6.1146,-1.95736 -12.68156,1.42588 -14.6372,7.54048c-1.95736,6.1146 1.42588,12.68156 7.54048,14.6372c6.1146,1.95736 12.68156,-1.42588 14.6372,-7.54048c1.95736,-6.1146 -1.42588,-12.68156 -7.54048,-14.6372zM112.76492,114.45396c-3.92848,-1.25732 -6.10428,-5.48164 -4.84868,-9.41012c1.25732,-3.92848 5.48164,-6.10428 9.41012,-4.84868c3.92848,1.25732 6.10428,5.48164 4.84868,9.41012c-1.2556,3.92848 -5.48164,6.106 -9.41012,4.84868z"
                        fill="#7777ab"
                    >
                    </path>
                    <path
                        d="M115.04048,119.39896c-1.00964,0 -2.01928,-0.12728 -3.01,-0.38356c-0.23048,-0.0602 -0.36808,-0.29412 -0.3096,-0.5246c0.0602,-0.22876 0.29412,-0.36636 0.5246,-0.3096c2.07604,0.53836 4.25356,0.4644 6.2952,-0.2064c0.2236,-0.07396 0.46784,0.04644 0.5418,0.27348c0.07396,0.22532 -0.04816,0.46784 -0.27348,0.5418c-1.22464,0.40592 -2.49572,0.60888 -3.76852,0.60888zM110.51172,118.48048c-0.05676,0 -0.1118,-0.01032 -0.16684,-0.0344c-4.8418,-2.04336 -7.78644,-6.93332 -7.32892,-12.17072c0.02064,-0.23736 0.215,-0.41108 0.46612,-0.39216c0.23564,0.02064 0.41108,0.22876 0.39044,0.46612c-0.42484,4.86588 2.30996,9.4084 6.80776,11.30384c0.21844,0.09288 0.32164,0.344 0.22876,0.56244c-0.07052,0.16512 -0.22876,0.26488 -0.39732,0.26488zM120.66832,117.94384c-0.15136,0 -0.29756,-0.08084 -0.37668,-0.22188c-0.11524,-0.20812 -0.03956,-0.46956 0.16856,-0.5848c0.8944,-0.49364 1.7114,-1.10252 2.43208,-1.806c0.172,-0.16684 0.44376,-0.15996 0.60888,0.00688c0.16684,0.17028 0.1634,0.44204 -0.00688,0.60888c-0.77572,0.75852 -1.65636,1.41212 -2.61612,1.9436c-0.06708,0.03784 -0.13932,0.05332 -0.20984,0.05332zM115.03876,115.24c-0.79636,0 -1.6082,-0.1204 -2.40628,-0.37668v0c-4.15724,-1.33128 -6.45516,-5.79468 -5.1256,-9.95192c1.33128,-4.15552 5.7964,-6.45 9.9502,-5.1256c4.15724,1.33128 6.45688,5.79468 5.12732,9.9502c-1.07328,3.35744 -4.19336,5.504 -7.54564,5.504zM112.89564,114.0446c3.70488,1.19024 7.68496,-0.86516 8.87004,-4.57004c1.18508,-3.70316 -0.86344,-7.68324 -4.57004,-8.86832c-3.70488,-1.18852 -7.68324,0.86344 -8.86832,4.56832c-1.18508,3.70488 0.86344,7.68324 4.56832,8.87004zM124.6054,114.40408c-0.08428,0 -0.17028,-0.0258 -0.24596,-0.0774c-0.19436,-0.13588 -0.24252,-0.40248 -0.10664,-0.59856c0.63468,-0.9116 1.13004,-1.9178 1.47232,-2.98592c1.20744,-3.7754 0.30788,-7.96016 -2.34952,-10.92028c-0.15824,-0.17716 -0.14276,-0.44892 0.03268,-0.60888c0.17544,-0.15652 0.4472,-0.14276 0.60716,0.0344c2.86036,3.18716 3.82872,7.69184 2.5284,11.7562c-0.3698,1.15068 -0.903,2.23256 -1.58756,3.21468c-0.08084,0.12212 -0.21672,0.18576 -0.35088,0.18576zM103.95508,104.2062c-0.043,0 -0.08772,-0.00688 -0.13072,-0.02064c-0.22532,-0.07224 -0.35088,-0.31476 -0.27864,-0.54008c0.98212,-3.06676 3.10288,-5.57108 5.97184,-7.05028c2.87068,-1.47576 6.1404,-1.75096 9.20716,-0.77056c0.74304,0.23908 1.462,0.54696 2.13624,0.91848c0.20812,0.11352 0.2838,0.37496 0.17028,0.58308c-0.11352,0.21156 -0.37668,0.28724 -0.5848,0.17028c-0.62608,-0.34228 -1.29172,-0.62952 -1.98316,-0.8514c-2.8466,-0.91332 -5.88412,-0.65704 -8.55012,0.71552c-2.666,1.37428 -4.6354,3.698 -5.547,6.54804c-0.05848,0.18232 -0.22876,0.29756 -0.41108,0.29756zM122.80112,99.072c-0.1032,0 -0.20468,-0.03612 -0.28724,-0.10836c-0.3096,-0.27692 -0.63468,-0.53836 -0.97696,-0.7826c-0.19264,-0.1376 -0.23736,-0.40592 -0.09976,-0.60028c0.1376,-0.19436 0.40764,-0.23736 0.60028,-0.09976c0.36808,0.26316 0.72068,0.54524 1.05092,0.83936c0.17716,0.15996 0.19092,0.43 0.03268,0.60888c-0.08428,0.09288 -0.20124,0.14276 -0.31992,0.14276z"
                        fill="#472b29"
                    >
                    </path>
                    <path
                        d="M125.9556,111.64864c-0.07224,0 -0.14448,-0.01892 -0.21328,-0.05504l-3.66532,-2.08464c-0.2064,-0.11696 -0.27864,-0.38184 -0.16168,-0.58824c0.11696,-0.20812 0.3784,-0.2752 0.58652,-0.16168l3.66532,2.08464c0.2064,0.11696 0.27864,0.38184 0.16168,0.58824c-0.07912,0.13932 -0.2236,0.21672 -0.37324,0.21672zM126.5748,108.85192c-0.043,0 -0.086,-0.00688 -0.129,-0.02064l-4.01964,-1.27108c-0.22704,-0.07224 -0.3526,-0.31304 -0.28036,-0.53836c0.07224,-0.22532 0.31476,-0.35088 0.53836,-0.28036l4.01964,1.27108c0.22704,0.07224 0.3526,0.31304 0.28036,0.53836c-0.05848,0.18404 -0.22704,0.301 -0.40936,0.301zM116.92388,100.52712c-0.07396,0 -0.14964,-0.01892 -0.21844,-0.05848c-0.20468,-0.1204 -0.27348,-0.38528 -0.15136,-0.58996l2.13796,-3.63436c0.1204,-0.2064 0.38356,-0.27004 0.58824,-0.15308c0.20468,0.1204 0.27348,0.38528 0.15136,0.58996l-2.13796,3.63436c-0.07912,0.13588 -0.22188,0.21156 -0.3698,0.21156zM112.62388,100.50648c-0.0258,0 -0.0516,-0.00172 -0.07568,-0.00688c-0.23392,-0.04128 -0.39044,-0.26488 -0.34744,-0.4988l0.74476,-4.15036c0.04128,-0.23392 0.27004,-0.39732 0.4988,-0.34744c0.23392,0.04128 0.39044,0.26488 0.34744,0.4988l-0.74476,4.15036c-0.03956,0.20812 -0.22016,0.35432 -0.42312,0.35432zM114.83236,100.20892c-0.04472,0 -0.08944,-0.00688 -0.13416,-0.02236c-0.22532,-0.07396 -0.34916,-0.31648 -0.27348,-0.5418l1.31408,-4.00588c0.07396,-0.22704 0.31648,-0.35432 0.5418,-0.27348c0.22532,0.07396 0.34916,0.31648 0.27348,0.5418l-1.31408,4.00588c-0.05848,0.1806 -0.22704,0.29584 -0.40764,0.29584zM126.25832,106.10336c-0.02924,0 -0.05848,-0.00344 -0.08772,-0.0086l-4.128,-0.85828c-0.2322,-0.04816 -0.38184,-0.27692 -0.33368,-0.50912c0.04816,-0.23392 0.28208,-0.37496 0.5074,-0.33368l4.128,0.85828c0.2322,0.04816 0.38184,0.27692 0.33368,0.50912c-0.043,0.20296 -0.22188,0.34228 -0.41968,0.34228zM108.56468,117.34012c-0.11352,0 -0.22876,-0.04472 -0.31304,-0.13416c-0.1634,-0.17372 -0.1548,-0.44548 0.01892,-0.60888l3.06848,-2.89304c0.17372,-0.1634 0.44548,-0.1548 0.60888,0.0172c0.1634,0.17372 0.1548,0.44548 -0.01892,0.60888l-3.06848,2.89304c-0.08428,0.0774 -0.1892,0.11696 -0.29584,0.11696zM106.07412,114.91492c-0.18232,0 -0.3526,-0.11696 -0.40936,-0.301c-0.07224,-0.22704 0.05332,-0.46784 0.28036,-0.53836l4.02136,-1.26764c0.22704,-0.06364 0.46784,0.05504 0.53836,0.28036c0.07224,0.22704 -0.05332,0.46784 -0.28036,0.53836l-4.02136,1.26764c-0.043,0.01376 -0.086,0.02064 -0.129,0.02064zM104.4728,112.4622c-0.20984,0 -0.39216,-0.15308 -0.42484,-0.36636c-0.03612,-0.23564 0.12556,-0.45408 0.3612,-0.48848l4.16928,-0.62608c0.23736,-0.02408 0.45408,0.12556 0.48848,0.3612c0.03612,0.23564 -0.12556,0.45408 -0.3612,0.48848l-4.16928,0.62608c-0.02064,0.00344 -0.04128,0.00516 -0.06364,0.00516z"
                        fill="#472b29"
                    >
                    </path>
                    <g
                        fill="#472b29"
                    >
                        <path
                            d="M103.70224,110.04904c-0.23564,0 -0.42828,-0.1892 -0.43,-0.42484c-0.00172,-0.23736 0.18748,-0.43172 0.42484,-0.43516l4.21744,-0.04988c0.00172,0 0.00344,0 0.00516,0c0.23564,0 0.42828,0.1892 0.43,0.42484c0.00172,0.23736 -0.18748,0.43172 -0.42484,0.43516l-4.21744,0.04988c-0.00172,0 -0.00344,0 -0.00516,0z"
                        >
                        </path>
                    </g>
                </g>
                <g>
                    <path
                        d="M109.994,79.86476c-1.30548,-0.25628 -2.55764,-0.66392 -3.73068,-1.20744c0.46956,-1.82492 -0.08256,-3.62232 -1.52392,-4.86072l-0.17888,-0.1548l-0.03784,-0.01376c-0.79808,-0.60544 -1.75268,-0.92364 -2.7692,-0.92364c-0.66908,0 -1.34848,0.14276 -1.99176,0.41624c-0.74304,-1.08532 -1.34676,-2.25148 -1.80084,-3.47612c2.1414,-1.30032 2.46648,-3.16136 2.34092,-4.54596c-0.13244,-1.36052 -0.7826,-3.09772 -3.05644,-3.99728c0.23736,-1.28312 0.63468,-2.537 1.18508,-3.72552c0.4816,0.12212 0.93912,0.18232 1.376,0.18232c1.39664,0 2.59376,-0.5934 3.55868,-1.75956c0.86,-1.06984 1.61164,-2.76748 0.60372,-5.0052c1.0836,-0.74476 2.24804,-1.34848 3.4744,-1.80428c1.15068,2.0038 2.8122,2.44756 4.0506,2.44756c0.16856,0 0.344,-0.0086 0.52116,-0.02408c1.3932,-0.11868 3.17856,-0.77744 4.05232,-3.15964c1.2298,0.23564 2.494,0.63812 3.72036,1.20228c-0.72584,2.6574 0.53664,4.28108 1.77848,5.1944c0.83248,0.6106 1.73892,0.92192 2.69352,0.92192c0.69832,-0.00172 1.41384,-0.17028 2.1328,-0.50396c0.73444,1.07672 1.32784,2.24288 1.77848,3.47956c-2.2102,1.26764 -2.56968,3.15104 -2.45788,4.55628c0.11696,1.40352 0.77056,3.19404 3.14072,4.06952c-0.1806,0.9804 -0.74648,2.75888 -1.21432,3.71692c-0.50052,-0.129 -0.97524,-0.19264 -1.42588,-0.19264c-1.40696,0 -2.60408,0.5934 -3.55696,1.763c-0.84796,1.04232 -1.60132,2.72276 -0.63124,4.96392c-1.08704,0.72928 -2.25836,1.32268 -3.4916,1.76644c-1.17648,-1.9522 -2.80876,-2.38564 -4.0162,-2.38564c-0.28208,0 -0.5762,0.02408 -0.88064,0.0688c-1.74924,0.28552 -2.97044,1.28828 -3.64296,2.99108zM113.0384,60.61108c-1.50156,0 -2.81736,0.9632 -3.27488,2.39596c-0.57792,1.80772 0.4214,3.7496 2.22912,4.32924c0.34228,0.10836 0.6966,0.16512 1.05264,0.16512c1.50156,0 2.81736,-0.9632 3.2766,-2.39596c0.28036,-0.87892 0.20296,-1.81116 -0.21672,-2.62644c-0.4214,-0.81872 -1.13692,-1.42072 -2.01412,-1.70108c-0.34228,-0.1118 -0.6966,-0.16684 -1.05264,-0.16684z"
                        fill="#a88a9c"
                    >
                    </path>
                    <path
                        d="M116.75532,49.6478c0.55728,0.14276 1.11112,0.32336 1.66324,0.53664c-0.2666,2.17408 0.56588,4.06264 2.4338,5.4352c1.04232,0.7654 2.18956,1.15412 3.4056,1.15412c0.54524,0 1.0922,-0.07912 1.64088,-0.23736c0.29412,0.50052 0.56072,1.02168 0.79464,1.56004c-1.5824,1.25044 -2.3478,3.01516 -2.18096,5.11528c0.17544,2.07432 1.19884,3.67564 2.94292,4.64228c-0.15308,0.54008 -0.35432,1.15584 -0.5504,1.68044c-0.23392,-0.0258 -0.46612,-0.03784 -0.69316,-0.03784c-1.76128,0 -3.31272,0.76196 -4.49264,2.20848c-1.25216,1.54112 -1.64088,3.34368 -1.1438,5.20816c-0.52116,0.30444 -1.05952,0.5762 -1.61336,0.81528c-1.13692,-1.38116 -2.66944,-2.12248 -4.4462,-2.12248c-0.344,0 -0.70176,0.02752 -1.08532,0.086c-1.34332,0.21672 -3.02204,0.89784 -4.1108,2.7864c-0.58996,-0.15308 -1.16444,-0.33884 -1.72,-0.55556c0.15996,-1.90748 -0.5762,-3.7496 -2.07776,-5.0396l-0.36464,-0.31304l-0.086,-0.02924c-0.9718,-0.68284 -2.11216,-1.0406 -3.32132,-1.0406c-0.49536,0 -0.99416,0.06192 -1.48264,0.18404c-0.31132,-0.52116 -0.59168,-1.05952 -0.83592,-1.61164c1.52736,-1.26248 2.2532,-3.02204 2.06572,-5.0998c-0.19608,-2.0124 -1.20916,-3.58448 -2.87412,-4.54596c0.14448,-0.57276 0.32508,-1.14036 0.5418,-1.69936c0.21672,0.02236 0.43172,0.0344 0.64328,0.0344c1.74752,0 3.29896,-0.76024 4.5064,-2.22224c1.2642,-1.57036 1.63916,-3.39528 1.11456,-5.2546c0.5074,-0.30272 1.03028,-0.5762 1.57036,-0.81528c1.12488,1.41212 2.6746,2.17064 4.49264,2.17064c0.2064,0 0.41796,-0.0086 0.61748,-0.02752c2.07948,-0.17716 3.68424,-1.2126 4.64572,-2.96528M113.04356,68.70368c2.02788,0 3.80464,-1.2986 4.42384,-3.23188c0.78088,-2.43896 -0.56932,-5.06024 -3.01,-5.84284c-0.46096,-0.1462 -0.9374,-0.22188 -1.41728,-0.22188c-2.02788,0 -3.80464,1.2986 -4.42384,3.23188c-0.78088,2.43896 0.56932,5.06024 3.01,5.84284c0.45924,0.1462 0.9374,0.22188 1.41728,0.22188M115.57712,46.96288c-0.22188,0 -0.41624,0.1462 -0.47644,0.36292c-0.48504,1.79912 -1.53768,2.74512 -3.19404,2.88444c-0.14104,0.01204 -0.28036,0.01892 -0.41452,0.01892c-1.46888,0 -2.53528,-0.76712 -3.25252,-2.32888c-0.08428,-0.17716 -0.25972,-0.28724 -0.44204,-0.28724c-0.0516,0 -0.10492,0.0086 -0.15652,0.02752c-1.75096,0.57448 -3.40044,1.43276 -4.87448,2.5284c-0.19264,0.14276 -0.258,0.41796 -0.13588,0.63812c0.89096,1.57896 0.8256,2.95496 -0.19264,4.22088c-0.72756,0.88236 -1.59616,1.32268 -2.62988,1.32268c-0.49192,0 -1.0234,-0.09976 -1.59272,-0.301c-0.05332,-0.01892 -0.10836,-0.02924 -0.1634,-0.02924c-0.18232,0 -0.35604,0.10492 -0.4386,0.28036c-0.8256,1.62024 -1.38632,3.37292 -1.65464,5.20472c-0.03096,0.2408 0.1118,0.46784 0.33884,0.54008c1.74408,0.51256 2.6488,1.55144 2.80532,3.15792c0.14964,1.6598 -0.5848,2.85692 -2.2274,3.65844c-0.215,0.1032 -0.33024,0.35948 -0.25628,0.58824c0.57448,1.75096 1.42588,3.38668 2.5112,4.85728c0.01376,0.02752 0.04128,0.04644 0.0688,0.06708c0.08944,0.0774 0.21156,0.11868 0.33712,0.11868c0.07396,0 0.14964,-0.01376 0.21844,-0.043c0.0516,-0.0172 0.09116,-0.03784 0.11868,-0.05332c0.61232,-0.33024 1.2556,-0.49364 1.87824,-0.49364c0.78776,0 1.54284,0.26144 2.16376,0.77744c0.01032,0.00344 0.02752,0.02064 0.03784,0.02408c1.15756,0.99588 1.548,2.47164 1.05092,3.95944c-0.08944,0.27864 -0.09804,0.66048 0.39044,0.90816c1.49984,0.74132 3.09772,1.25216 4.74204,1.54112c0.00172,0 0.00344,0 0.00688,0c0.06708,0 0.13932,0.01204 0.20296,0.02064l0.06536,0.0086c0.01892,0.00172 0.03612,0.00344 0.05504,0.00344c0.20984,0 0.41108,-0.1462 0.47816,-0.35604c0.47988,-1.60648 1.4104,-2.49056 2.87068,-2.7262c0.24252,-0.03612 0.47644,-0.05504 0.70004,-0.05504c1.42244,0 2.48712,0.74476 3.23532,2.26868c0.08772,0.17028 0.25972,0.27004 0.44032,0.27004c0.04988,0 0.10148,-0.0086 0.15136,-0.02408c1.75784,-0.56244 3.40044,-1.39836 4.87964,-2.47164c0.19264,-0.14276 0.258,-0.41624 0.13588,-0.63812c-0.85656,-1.58068 -0.78088,-2.95324 0.23048,-4.1968c0.72068,-0.88408 1.58928,-1.31924 2.623,-1.31924c0.49364,0 1.02684,0.09976 1.59788,0.29756c0.05504,0.02064 0.11008,0.02924 0.16512,0.02924c0.15996,0 0.31132,-0.07912 0.4042,-0.21156c0.67596,-0.97696 1.7544,-4.27592 1.73376,-5.35092c0,-0.215 -0.15136,-0.4128 -0.3612,-0.46784c-1.76472,-0.48504 -2.7004,-1.53424 -2.83972,-3.1906c-0.13244,-1.67872 0.62264,-2.86724 2.32888,-3.66016c0.22704,-0.10836 0.344,-0.36636 0.27004,-0.59512c-0.56932,-1.7716 -1.41384,-3.42796 -2.50776,-4.90372c-0.0946,-0.13072 -0.23908,-0.19952 -0.387,-0.19952c-0.08772,0 -0.17544,0.02408 -0.25456,0.07396c-0.72928,0.42656 -1.43276,0.64156 -2.10528,0.64156c-0.69316,0 -1.35536,-0.22704 -1.97972,-0.68628c-1.48092,-1.08704 -1.86104,-2.52668 -1.161,-4.42556c0.08944,-0.24424 -0.02064,-0.50568 -0.24768,-0.61232c-1.67184,-0.84108 -3.42452,-1.4018 -5.22364,-1.67184c-0.02064,0 -0.04472,-0.00172 -0.06708,-0.00172zM113.04356,66.29568c-0.22704,0 -0.45752,-0.0344 -0.68456,-0.10836c-1.17992,-0.3784 -1.82836,-1.63572 -1.44996,-2.81564c0.30444,-0.95288 1.18164,-1.55832 2.12936,-1.55832c0.22704,0 0.45752,0.0344 0.68456,0.10836c1.17992,0.3784 1.82836,1.63572 1.44996,2.81564c-0.30444,0.95288 -1.18164,1.55832 -2.12936,1.55832z"
                        fill="#472b29"
                    >
                    </path>
                    <path
                        d="M115.52208,56.30592c-4.27248,-1.3674 -8.86144,0.9976 -10.22884,5.27008c-1.3674,4.27248 0.9976,8.86144 5.27008,10.22884c4.27248,1.3674 8.86144,-0.9976 10.22884,-5.27008c0.51256,-1.60304 0.50052,-3.2508 0.05848,-4.7558c-0.16856,-0.57448 -0.39904,-1.12832 -0.688,-1.6512c-0.34744,-0.63124 -0.77916,-1.21604 -1.28312,-1.73892c-0.45408,-0.46956 -0.97008,-0.88924 -1.53768,-1.24184c-0.55728,-0.34744 -1.16616,-0.63124 -1.81976,-0.84108zM114.1822,60.49068c1.9608,0.6278 3.05128,2.74512 2.4252,4.70592c-0.6278,1.9608 -2.74512,3.05128 -4.70592,2.4252c-1.9608,-0.6278 -3.05128,-2.74512 -2.4252,-4.70592c0.6278,-1.9608 2.74512,-3.053 4.70592,-2.4252z"
                        fill="#7777ab"
                    >
                    </path>
                    <path
                        d="M120.06116,68.3356c-0.086,0 -0.17372,-0.0258 -0.24768,-0.07912l-4.02824,-2.84488c-0.19436,-0.13588 -0.2408,-0.4042 -0.1032,-0.60028c0.13932,-0.19092 0.40936,-0.23908 0.59856,-0.1032l4.02824,2.84488c0.19436,0.13588 0.2408,0.4042 0.1032,0.60028c-0.08428,0.11868 -0.21672,0.18232 -0.35088,0.18232zM108.27572,71.05836c-0.1204,0 -0.24252,-0.04988 -0.3268,-0.14964c-0.1548,-0.1806 -0.13416,-0.45236 0.04644,-0.60716l4.21916,-3.61372c0.17888,-0.1548 0.45236,-0.13416 0.60716,0.04472c0.1548,0.1806 0.13416,0.45236 -0.04644,0.60716l-4.21916,3.61372c-0.08256,0.07224 -0.18232,0.10492 -0.28036,0.10492zM106.0294,68.04492c-0.17888,0 -0.34572,-0.1118 -0.40764,-0.29068c-0.07568,-0.22532 0.043,-0.46956 0.26832,-0.54524l4.74032,-1.61852c0.21844,-0.07912 0.46784,0.043 0.54524,0.2666c0.07568,0.22532 -0.043,0.46956 -0.26832,0.54524l-4.74032,1.61852c-0.04472,0.0172 -0.09116,0.02408 -0.1376,0.02408zM111.20832,61.9716c-0.01548,0 -0.03268,0 -0.04816,-0.00344c-0.23564,-0.0258 -0.40592,-0.23736 -0.38012,-0.473l0.59684,-5.41456c0.0258,-0.23736 0.23564,-0.43 0.47472,-0.38012c0.23564,0.0258 0.40592,0.23736 0.38012,0.473l-0.59684,5.41456c-0.02408,0.22188 -0.20984,0.38356 -0.42656,0.38356zM113.55612,61.35584c-0.05676,0 -0.11524,-0.01204 -0.172,-0.03612c-0.21672,-0.09632 -0.3182,-0.34744 -0.2236,-0.56588l1.95564,-4.50124c0.0946,-0.21672 0.35088,-0.31476 0.56588,-0.2236c0.21672,0.09632 0.3182,0.34744 0.2236,0.56588l-1.95564,4.50124c-0.0688,0.16168 -0.22704,0.25972 -0.39388,0.25972z"
                        fill="#472b29"
                    >
                    </path>
                    <g fill="#472b29">
                        <path
                            d="M113.02808,72.62356c-0.87548,0 -1.74408,-0.13588 -2.5972,-0.40764c-4.4978,-1.43964 -6.98836,-6.27112 -5.54872,-10.77064c0.07224,-0.22704 0.31304,-0.34572 0.54008,-0.27864c0.22532,0.07224 0.35088,0.31476 0.27864,0.54008c-1.29516,4.04716 0.94428,8.3936 4.98972,9.68876c1.15756,0.36808 2.3478,0.46096 3.5432,0.27176c0.2322,-0.03784 0.45408,0.12212 0.49192,0.35776c0.03612,0.23392 -0.12212,0.4558 -0.35776,0.49192c-0.44548,0.07052 -0.8944,0.10664 -1.33988,0.10664zM116.54032,71.8272c-0.15996,0 -0.31476,-0.09116 -0.38872,-0.24596c-0.1032,-0.21328 -0.01204,-0.46956 0.20296,-0.57276c1.91436,-0.91332 3.38152,-2.59204 4.02652,-4.60444c0.57104,-1.78536 0.46956,-3.7152 -0.2838,-5.43348c-0.0946,-0.21844 0.00344,-0.47128 0.22188,-0.56588c0.215,-0.09632 0.47128,0.00172 0.56588,0.22016c0.83764,1.91092 0.94944,4.05576 0.31476,6.04236c-0.71724,2.23772 -2.3478,4.10392 -4.47544,5.11872c-0.05848,0.02752 -0.12212,0.04128 -0.18404,0.04128zM113.0384,68.22896c-0.42656,0 -0.85312,-0.06536 -1.26936,-0.1978c-1.0578,-0.33712 -1.92124,-1.07156 -2.4338,-2.06572c-0.51084,-0.99244 -0.60716,-2.12248 -0.26832,-3.182c0.70176,-2.18612 3.05128,-3.40044 5.246,-2.70212v0c2.19128,0.70176 3.40388,3.05472 2.70384,5.24772c-0.33884,1.0578 -1.07328,1.92124 -2.06572,2.4338c-0.60372,0.3096 -1.2556,0.46612 -1.91264,0.46612zM113.04528,60.7418c-1.4018,0 -2.709,0.89784 -3.15792,2.30308c-0.26832,0.83936 -0.19264,1.7372 0.21328,2.52668c0.40764,0.78948 1.0922,1.37256 1.93156,1.63916c0.83936,0.26832 1.73548,0.19264 2.52496,-0.21328c0.78948,-0.40592 1.37256,-1.09392 1.64088,-1.93156c0.55728,-1.74064 -0.40592,-3.60856 -2.14656,-4.16584c-0.33368,-0.10664 -0.67424,-0.15824 -1.0062,-0.15824zM119.74984,59.88696c-0.1376,0 -0.27176,-0.06536 -0.35432,-0.18576c-0.301,-0.4386 -0.645,-0.84452 -1.0234,-1.20744c-0.172,-0.16512 -0.17716,-0.43688 -0.01204,-0.60888c0.16512,-0.172 0.43688,-0.17544 0.60888,-0.01376c0.4214,0.4042 0.80324,0.85656 1.1352,1.3416c0.13416,0.19608 0.08428,0.4644 -0.1118,0.59856c-0.07396,0.0516 -0.15996,0.07568 -0.24252,0.07568zM107.74596,58.31144c-0.1204,0 -0.24252,-0.04988 -0.3268,-0.15136c-0.1548,-0.17888 -0.13416,-0.45236 0.04644,-0.60716c2.28072,-1.94876 5.34232,-2.56452 8.18548,-1.65808c0.68112,0.21844 1.333,0.52116 1.93672,0.89784c0.20124,0.12556 0.26144,0.39216 0.13588,0.5934c-0.12556,0.19952 -0.39044,0.26316 -0.5934,0.13588c-0.5418,-0.33884 -1.12832,-0.6106 -1.74236,-0.8084c-2.55936,-0.81872 -5.31136,-0.25972 -7.36504,1.49296c-0.07912,0.07224 -0.17716,0.10492 -0.27692,0.10492z"
                        >
                        </path>
                    </g>
                </g>
            </g>
        </g>
    </g>
</svg>