<svg
    xmlns="http://www.w3.org/2000/svg"
    x="0px" y="0px"
    width="100" height="100"
    viewBox="0 0 172 172"
>
    <g fill="none" fill-rule="nonzero" stroke="none" stroke-width="1" stroke-linecap="butt" stroke-linejoin="miter" stroke-miterlimit="10" stroke-dasharray="" stroke-dashoffset="0" font-family="none" font-weight="none" font-size="none" text-anchor="none">
        <path d="M0,172v-172h172v172z" fill="none">
        </path>
        <g>
            <path d="M150.0098,97.5412c1.9522,-3.7066 3.0702,-7.9206 3.0702,-12.4012c0,-11.38812 -7.15348,-21.08204 -17.20172,-24.90216c0,-0.01204 0.00172,-0.02408 0.00172,-0.03784c0,-19.94856 -16.17144,-36.12 -36.12,-36.12c-16.82848,0 -30.92732,11.52572 -34.93836,27.10204c-2.53872,-0.8342 -5.24428,-1.30204 -8.06164,-1.30204c-13.23024,0 -24.11956,9.96396 -25.6108,22.79344c-8.95088,1.89372 -15.6692,9.83324 -15.6692,19.34656c0,10.92372 8.85628,19.78 19.78,19.78c0.30444,0 0.60544,-0.02064 0.90472,-0.03784c-0.00688,0.301 -0.04472,0.59512 -0.04472,0.89784c0,19.47384 15.78616,35.26 35.26,35.26c11.07164,0 20.941,-5.11184 27.40648,-13.09608c3.74616,3.827 8.95432,6.21608 14.73352,6.21608c7.998,0 14.91928,-4.558 18.34552,-11.21096c1.80944,0.5762 3.73412,0.89096 5.73448,0.89096c10.449,0 18.92,-8.471 18.92,-18.92c0,-5.69492 -2.5284,-10.78956 -6.5102,-14.2588z" fill="#cecece">
            </path>
            <path d="M120.615,105.78c0,0 -6.2608,0 -10.535,0c-4.2742,0 -7.74,-3.4658 -7.74,-7.74c0,-4.01276 3.06504,-7.27388 6.9746,-7.6626c-0.03784,-0.31132 -0.0946,-0.61576 -0.0946,-0.9374c0,-4.2742 3.4658,-7.74 7.74,-7.74c2.47336,0 4.64916,1.17992 6.06644,2.98592c0.2408,-4.53392 3.95944,-8.14592 8.55356,-8.14592c4.74892,0 8.6,3.85108 8.6,8.6c0,0.76712 -0.13244,1.4964 -0.32164,2.20504c1.10424,-1.33644 2.752,-2.20504 4.62164,-2.20504c3.06332,0 5.56248,2.2962 5.9426,5.2546c0.31132,-0.03784 0.61576,-0.0946 0.9374,-0.0946c4.2742,0 7.74,3.4658 7.74,7.74c0,4.2742 -3.4658,7.74 -7.74,7.74c-4.2742,0 -16.34,0 -16.34,0h-9.245v0.86h-5.16z" fill="#fdfcef">
            </path>
            <path d="M131.58,75.68c5.21676,0 9.46,4.24324 9.46,9.46c0,0.02752 0,0.05332 0,0.08084c1.03544,-0.6106 2.2188,-0.94084 3.44,-0.94084c3.14932,0 5.86692,2.16892 6.63576,5.1686c0.08084,-0.00516 0.16168,-0.0086 0.24424,-0.0086c4.74204,0 8.6,3.85796 8.6,8.6c0,4.74204 -3.85796,8.6 -8.6,8.6h-25.585c-0.47472,0 -0.86,-0.38528 -0.86,-0.86c0,-0.47472 0.38528,-0.86 0.86,-0.86h25.585c3.79432,0 6.88,-3.08568 6.88,-6.88c0,-3.79432 -3.08568,-6.88 -6.88,-6.88c-0.20124,0 -0.3956,0.02924 -0.58996,0.05504l-0.24252,0.03268c-0.03612,0.00516 -0.07052,0.00688 -0.10664,0.00688c-0.42312,0 -0.79464,-0.3182 -0.8514,-0.75164c-0.32852,-2.56796 -2.51636,-4.50296 -5.08948,-4.50296c-1.5222,0 -2.96356,0.68972 -3.95772,1.892c-0.16856,0.20296 -0.41452,0.31304 -0.66392,0.31304c-0.13416,0 -0.26832,-0.03096 -0.39216,-0.09632c-0.35948,-0.18404 -0.54008,-0.59512 -0.43688,-0.98556c0.1978,-0.7482 0.29068,-1.37772 0.29068,-1.98316c0,-4.26732 -3.47268,-7.74 -7.74,-7.74c-4.09532,0 -7.47684,3.21984 -7.69528,7.33236c-0.01892,0.35776 -0.258,0.66564 -0.60028,0.774c-0.086,0.02752 -0.17372,0.04128 -0.26144,0.04128c-0.258,0 -0.50912,-0.11868 -0.67424,-0.33024c-1.32612,-1.68904 -3.28864,-2.6574 -5.38876,-2.6574c-3.79432,0 -6.88,3.08568 -6.88,6.88c0,0.20124 0.02924,0.3956 0.05504,0.58996l0.03268,0.24252c0.02752,0.23048 -0.03784,0.46096 -0.18232,0.64156c-0.14448,0.1806 -0.35604,0.29584 -0.5848,0.3182c-3.53632,0.3526 -6.2006,3.28004 -6.2006,6.80776c0,3.79432 3.08568,6.88 6.88,6.88h10.535c0.47472,0 0.86,0.38528 0.86,0.86c0,0.47472 -0.38528,0.86 -0.86,0.86h-10.535c-4.74204,0 -8.6,-3.85796 -8.6,-8.6c0,-4.12284 2.90508,-7.59036 6.88516,-8.38844c-0.00344,-0.07052 -0.00516,-0.14104 -0.00516,-0.21156c0,-4.74204 3.85796,-8.6 8.6,-8.6c2.02272,0 3.94396,0.71552 5.47476,2.00208c1.02856,-4.13488 4.75064,-7.16208 9.14524,-7.16208z" fill="#472b29">
            </path>
            <path d="M134.16,87.72c2.41316,0 4.48748,1.71828 5.01036,4.02652c0.63124,-0.38184 1.35192,-0.58652 2.08464,-0.58652c2.06744,0 3.78056,1.54284 4.04716,3.55696c0.34916,-0.07912 0.68112,-0.11696 1.0062,-0.11696c2.62988,0 4.83492,2.064 5.01896,4.69904c0.01548,0.23736 -0.1634,0.44376 -0.39904,0.46096c-0.01032,0 -0.02064,0 -0.03096,0c-0.2236,0 -0.4128,-0.17372 -0.42828,-0.39904c-0.15308,-2.18612 -1.97972,-3.90096 -4.16068,-3.90096c-0.39388,0 -0.8084,0.07224 -1.26936,0.21844c-0.03784,0.01204 -0.0774,0.0172 -0.11524,0.0172c-0.0946,0 -0.1892,-0.0344 -0.26832,-0.09288c-0.11008,-0.07912 -0.17544,-0.22016 -0.17544,-0.35776c0,-1.77848 -1.44652,-3.225 -3.225,-3.225c-0.76884,0 -1.5222,0.28896 -2.11732,0.81356c-0.08084,0.07052 -0.18232,0.10836 -0.2838,0.10836c-0.05504,0 -0.10836,-0.01032 -0.15996,-0.03268c-0.15136,-0.0602 -0.25456,-0.20124 -0.2666,-0.36464c-0.17888,-2.22396 -2.05196,-3.9646 -4.26732,-3.9646c-0.35776,0 -0.731,0.05848 -1.17304,0.18404c-0.03956,0.01204 -0.08084,0.0172 -0.1204,0.0172c-0.18748,0 -0.35604,-0.12556 -0.41108,-0.31304c-0.06536,-0.22876 0.06708,-0.46612 0.29584,-0.53148c0.51944,-0.14792 0.96836,-0.21672 1.40868,-0.21672zM110.28124,90.3c2.28072,0 4.31376,1.54284 4.94328,3.75304c0.06536,0.22876 -0.06708,0.46612 -0.29584,0.53148c-0.04128,0.01032 -0.08084,0.01548 -0.11868,0.01548c-0.18748,0 -0.35948,-0.12384 -0.4128,-0.31304c-0.5246,-1.8404 -2.21708,-3.12696 -4.11596,-3.12696c-0.20124,0 -0.3956,0.02408 -0.58824,0.04988c-0.02064,0.00344 -0.03956,0.00516 -0.0602,0.00516c-0.20812,0 -0.39388,-0.15824 -0.42312,-0.37324c-0.03268,-0.23564 0.13244,-0.45236 0.36808,-0.48332c0.23048,-0.03096 0.4644,-0.05848 0.70348,-0.05848z" fill="#472b29">
            </path>
            <path d="M28.2166,91.16h-17.0366c-0.47472,0 -0.86,-0.38528 -0.86,-0.86c0,-0.47472 0.38528,-0.86 0.86,-0.86h17.0366c0.47472,0 0.86,0.38528 0.86,0.86c0,0.47472 -0.38356,0.86 -0.86,0.86zM33.54,91.16h-1.72c-0.47472,0 -0.86,-0.38528 -0.86,-0.86c0,-0.47472 0.38528,-0.86 0.86,-0.86h1.72c0.47472,0 0.86,0.38528 0.86,0.86c0,0.47472 -0.38356,0.86 -0.86,0.86zM42.12452,94.6h-15.46452c-0.47472,0 -0.86,-0.38528 -0.86,-0.86c0,-0.47472 0.38528,-0.86 0.86,-0.86h15.46452c0.47472,0 0.86,0.38528 0.86,0.86c0,0.47472 -0.38528,0.86 -0.86,0.86zM23.22,94.6h-1.72c-0.47472,0 -0.86,-0.38528 -0.86,-0.86c0,-0.47472 0.38528,-0.86 0.86,-0.86h1.72c0.47472,0 0.86,0.38528 0.86,0.86c0,0.47472 -0.38356,0.86 -0.86,0.86zM18.06,94.6h-3.44c-0.47472,0 -0.86,-0.38528 -0.86,-0.86c0,-0.47472 0.38528,-0.86 0.86,-0.86h3.44c0.47472,0 0.86,0.38528 0.86,0.86c0,0.47472 -0.38356,0.86 -0.86,0.86zM28.38,98.04h-3.44c-0.47472,0 -0.86,-0.38528 -0.86,-0.86c0,-0.47472 0.38528,-0.86 0.86,-0.86h3.44c0.47472,0 0.86,0.38528 0.86,0.86c0,0.47472 -0.38528,0.86 -0.86,0.86zM33.54,82.56c-0.30444,0 -1.41556,0 -1.72,0c-0.47472,0 -0.86,0.38528 -0.86,0.86c0,0.47472 0.38528,0.86 0.86,0.86c0.30444,0 1.41556,0 1.72,0c0.47472,0 0.86,-0.38528 0.86,-0.86c0,-0.47472 -0.38528,-0.86 -0.86,-0.86zM33.54,86c-0.30444,0 -8.29556,0 -8.6,0c-0.47472,0 -0.86,0.38528 -0.86,0.86c0,0.47472 0.38528,0.86 0.86,0.86c0.30444,0 8.29556,0 8.6,0c0.47472,0 0.86,-0.38528 0.86,-0.86c0,-0.47472 -0.38528,-0.86 -0.86,-0.86zM42.14,89.44c-0.30444,0 -4.85556,0 -5.16,0c-0.47472,0 -0.86,0.38528 -0.86,0.86c0,0.47472 0.38528,0.86 0.86,0.86c0.30444,0 4.85556,0 5.16,0c0.47472,0 0.86,-0.38528 0.86,-0.86c0,-0.47472 -0.38528,-0.86 -0.86,-0.86zM119.54,41.28h-17.2c-0.47472,0 -0.86,-0.38528 -0.86,-0.86c0,-0.47472 0.38528,-0.86 0.86,-0.86h17.2c0.47472,0 0.86,0.38528 0.86,0.86c0,0.47472 -0.38528,0.86 -0.86,0.86zM126.42,41.28h-3.44c-0.47472,0 -0.86,-0.38528 -0.86,-0.86c0,-0.47472 0.38528,-0.86 0.86,-0.86h3.44c0.47472,0 0.86,0.38528 0.86,0.86c0,0.47472 -0.38528,0.86 -0.86,0.86zM135.02,44.72h-17.2c-0.47472,0 -0.86,-0.38528 -0.86,-0.86c0,-0.47472 0.38528,-0.86 0.86,-0.86h17.2c0.47472,0 0.86,0.38528 0.86,0.86c0,0.47472 -0.38356,0.86 -0.86,0.86zM114.38,44.72h-1.72c-0.47472,0 -0.86,-0.38528 -0.86,-0.86c0,-0.47472 0.38528,-0.86 0.86,-0.86h1.72c0.47472,0 0.86,0.38528 0.86,0.86c0,0.47472 -0.38528,0.86 -0.86,0.86zM109.005,44.72h-3.225c-0.47472,0 -0.86,-0.38528 -0.86,-0.86c0,-0.47472 0.38528,-0.86 0.86,-0.86h3.225c0.47472,0 0.86,0.38528 0.86,0.86c0,0.47472 -0.38528,0.86 -0.86,0.86zM124.7,37.84h-8.6c-0.47472,0 -0.86,-0.38528 -0.86,-0.86c0,-0.47472 0.38528,-0.86 0.86,-0.86h8.6c0.47472,0 0.86,0.38528 0.86,0.86c0,0.47472 -0.38356,0.86 -0.86,0.86zM119.54,48.16h-3.44c-0.47472,0 -0.86,-0.38528 -0.86,-0.86c0,-0.47472 0.38528,-0.86 0.86,-0.86h3.44c0.47472,0 0.86,0.38528 0.86,0.86c0,0.47472 -0.38528,0.86 -0.86,0.86z" fill="#ffffff">
            </path>
            <path d="M57.62,133.3c0,0 2.69524,0 6.02,0c3.32476,0 6.02,-2.69524 6.02,-6.02c0,-3.06332 -2.2962,-5.56248 -5.2546,-5.9426c0.04816,-0.30788 0.0946,-0.61576 0.0946,-0.9374c0,-3.32476 -2.69524,-6.02 -6.02,-6.02c-1.77504,0 -3.354,0.7826 -4.4548,2.0038c-0.66048,-3.10976 -3.41764,-5.4438 -6.7252,-5.4438c-3.79948,0 -6.88,3.08052 -6.88,6.88c0,0.32852 0.0516,0.64328 0.09632,0.95976c-0.73616,-0.59168 -1.65808,-0.95976 -2.67632,-0.95976c-2.11216,0 -3.8614,1.52564 -4.2226,3.5346c-0.30788,-0.04816 -0.61576,-0.0946 -0.9374,-0.0946c-3.32476,0 -6.02,2.69524 -6.02,6.02c0,3.32476 2.69524,6.02 6.02,6.02c3.32476,0 12.9,0 12.9,0v0.86h12.04z" fill="#fdfcef">
            </path>
            <path d="M60.63,125.56c-0.23736,0 -0.43,-0.19264 -0.43,-0.43c0,-2.10356 1.7114,-3.81496 3.81496,-3.81496c0.05848,0.01548 1.26764,-0.00172 2.13968,0.23392c0.22876,0.06192 0.36464,0.29756 0.30272,0.52632c-0.06192,0.23048 -0.29756,0.36636 -0.52632,0.30272c-0.76368,-0.2064 -1.892,-0.2064 -1.91436,-0.20296c-1.63056,0 -2.95668,1.32612 -2.95668,2.95496c0,0.23736 -0.19264,0.43 -0.43,0.43zM49.02,132.44c-0.47496,0 -0.86,0.38504 -0.86,0.86c0,0.47496 0.38504,0.86 0.86,0.86c0.47496,0 0.86,-0.38504 0.86,-0.86c0,-0.47496 -0.38504,-0.86 -0.86,-0.86z" fill="#472b29">
            </path>
            <path d="M63.64,134.16h-6.02c-0.47472,0 -0.86,-0.38528 -0.86,-0.86c0,-0.47472 0.38528,-0.86 0.86,-0.86h6.02c2.84488,0 5.16,-2.31512 5.16,-5.16c0,-2.57312 -1.935,-4.76096 -4.50296,-5.08948c-0.23048,-0.03096 -0.4386,-0.15136 -0.57792,-0.33712c-0.13932,-0.18576 -0.1978,-0.41968 -0.16168,-0.64844c0.03956,-0.26488 0.08256,-0.52976 0.08256,-0.80496c0,-2.84488 -2.31512,-5.16 -5.16,-5.16c-1.462,0 -2.81736,0.6106 -3.81668,1.72c-0.215,0.23908 -0.55212,0.34056 -0.86,0.25456c-0.31304,-0.08428 -0.55212,-0.3354 -0.6192,-0.65188c-0.58652,-2.75888 -3.0616,-4.76268 -5.88412,-4.76268c-3.3196,0 -6.02,2.7004 -6.02,6.02c0,0.24596 0.03612,0.4816 0.07052,0.71896c0.04988,0.34916 -0.10836,0.75336 -0.41624,0.9288c-0.30788,0.17544 -0.68112,0.20296 -0.95632,-0.0172c-0.6278,-0.50396 -1.36568,-0.77056 -2.13796,-0.77056c-1.66152,0 -3.08224,1.18852 -3.37636,2.82768c-0.08256,0.45924 -0.50912,0.76712 -0.97868,0.6966c-0.26488,-0.04128 -0.52976,-0.08428 -0.80496,-0.08428c-2.84488,0 -5.16,2.31512 -5.16,5.16c0,2.84488 2.31512,5.16 5.16,5.16h12.9c0.47472,0 0.86,0.38528 0.86,0.86c0,0.47472 -0.38528,0.86 -0.86,0.86h-12.9c-3.79432,0 -6.88,-3.08568 -6.88,-6.88c0,-3.79432 3.08568,-6.88 6.88,-6.88c0.10148,0 0.19952,0.00344 0.29928,0.01032c0.71208,-2.03992 2.64364,-3.45032 4.86072,-3.45032c0.60028,0 1.18508,0.10492 1.73892,0.3096c0.2838,-4.01276 3.6378,-7.1896 7.72108,-7.1896c3.14932,0 5.96152,1.93844 7.14316,4.77128c1.1696,-0.85656 2.58344,-1.33128 4.03684,-1.33128c3.79432,0 6.88,3.08568 6.88,6.88c0,0.08256 -0.00172,0.1634 -0.00688,0.24424c2.99796,0.77056 5.16688,3.48644 5.16688,6.63576c0,3.79432 -3.08568,6.88 -6.88,6.88z" fill="#472b29">
            </path>
            <path d="M54.18,132.44c-0.27348,0 -1.44652,0 -1.72,0c-0.47472,0 -0.86,0.38528 -0.86,0.86c0,0.47472 0.38528,0.86 0.86,0.86c0.27348,0 1.44652,0 1.72,0c0.47472,0 0.86,-0.38528 0.86,-0.86c0,-0.47472 -0.38528,-0.86 -0.86,-0.86z" fill="#472b29">
            </path>
            <path d="M87.72,128.69212c-1.77848,0 -3.47096,-0.6536 -4.76612,-1.83868l-0.36464,-0.33884c-1.07844,-1.00964 -2.42004,-2.26524 -4.04544,-2.26524h-25.76216c-0.95976,0 -1.70968,-0.65876 -1.70968,-1.49812l0.01204,-43.80152c0,-0.88752 0.75508,-1.6082 1.6856,-1.6082h69.89908c0.93052,0 1.6856,0.72068 1.6856,1.6082l-0.01204,43.79808c0,0.88752 -0.75508,1.6082 -1.6856,1.6082h-25.76388c-1.69076,0 -3.09428,1.28656 -4.21916,2.322l-0.1892,0.17544c-1.29516,1.18508 -2.98764,1.83868 -4.7644,1.83868z" fill="#a88a9c">
            </path>
            <path d="M122.66868,78.54724c0.26144,0 0.48332,0.18404 0.48332,0.40248l-0.01204,43.7998c0,0.21844 -0.22016,0.40248 -0.48332,0.40248h-25.7656c-2.16032,0 -3.8184,1.52392 -5.031,2.63504l-0.19436,0.17888c-1.06984,0.98212 -2.47164,1.52392 -3.9474,1.52392c-1.47576,0 -2.87928,-0.54008 -3.95256,-1.52392l-0.35432,-0.32852c-1.16788,-1.09392 -2.76748,-2.59204 -4.8676,-2.59204h-25.76216c-0.24424,0 -0.50568,-0.11868 -0.50568,-0.2924l0.01204,-43.80324c0,-0.21844 0.22016,-0.40248 0.48332,-0.40248h69.89736M122.66868,76.13924h-69.89736c-1.59616,0 -2.89132,1.26076 -2.89132,2.81048l-0.01204,43.80152c0,1.54972 1.31924,2.70212 2.91368,2.70212h25.76388c1.30376,0 2.57312,1.35364 3.5948,2.28932c1.51876,1.39148 3.5002,2.15516 5.57796,2.15516c2.07776,0 4.0592,-0.7654 5.57624,-2.15688c1.02512,-0.93568 2.29448,-2.18096 3.59824,-2.18096h25.7656c1.59444,0 2.89132,-1.26076 2.89132,-2.81048l0.01032,-43.7998c0,-1.54972 -1.29516,-2.81048 -2.89132,-2.81048z" fill="#472b29">
            </path>
            <path d="M88.021,116.54892c-2.98848,0 -5.41112,2.42264 -5.41112,5.41112c0,2.98848 2.42264,5.41112 5.41112,5.41112c2.98848,0 5.41112,-2.42264 5.41112,-5.41112c0,-2.98848 -2.42264,-5.41112 -5.41112,-5.41112z" fill="#472b29">
            </path>
            <g>
                <path d="M56.244,119.196v-40.16888l2.40284,-5.98044c0.2838,-0.70348 0.98556,-1.15928 1.78708,-1.15928c10.68464,0.02236 20.081,1.88168 25.77592,5.10496l0.52804,0.29928h1.90232l0.48848,-0.24768c6.1318,-3.09256 15.75176,-5.01208 25.73464,-5.1342c0.89956,0 1.6684,0.49192 1.9866,1.28484l2.34264,5.83252v40.16888z" fill="#fffef4">
                </path>
                <path d="M60.4322,73.09312c10.48856,0.02064 19.6682,1.82492 25.19112,4.95016l0.25112,0.14276l0.5504,0.3096h0.63124h1.2986h0.57276l0.51256,-0.258l0.2322,-0.11696c5.97872,-3.01344 15.40088,-4.8848 25.17564,-5.00692c0.4214,0 0.75164,0.1978 0.8858,0.52976l2.25664,5.6158v38.73268h-60.54228v-38.73096l2.31856,-5.76372c0.09976,-0.2494 0.35432,-0.40248 0.66564,-0.4042M60.43392,70.68512c-1.29688,0 -2.43552,0.74992 -2.90336,1.91436l-2.49056,6.19544v41.60508h65.36v-41.60508l-2.43036,-6.04752c-0.4988,-1.24012 -1.70796,-2.03992 -3.12008,-2.03992c-10.15488,0.12556 -19.97092,2.09324 -26.26096,5.26492l-0.23392,0.11696h-1.2986l-0.25112,-0.14276c-5.86864,-3.32304 -15.47828,-5.24084 -26.37104,-5.26148z" fill="#472b29">
                </path>
            </g>
            <g fill="#bebacb">
                <path d="M115.31912,113.16396l-27.50968,1.37944l-27.60256,-1.37944l-2.88616,5.08604h60.88456z">
                </path>
            </g>
            <g fill="#472b29">
                <path d="M92.30896,81.33192c-0.15136,0 -0.29584,-0.08944 -0.35604,-0.23736c-0.08428,-0.19608 0.01032,-0.4214 0.20812,-0.50396c6.02344,-2.49744 12.32552,-3.58104 18.75316,-3.24736c0.21328,0.01204 0.37496,0.19436 0.36464,0.40764c-0.01204,0.21156 -0.14964,0.38528 -0.40764,0.36464c-6.31412,-0.33196 -12.50268,0.73444 -18.41432,3.18716c-0.04816,0.02064 -0.09632,0.02924 -0.14792,0.02924z">
                </path>
            </g>
            <g fill="#472b29">
                <path d="M110.89356,84.58788c-0.00688,0 -0.01376,0 -0.02236,0c-1.35536,-0.07568 -2.72964,-0.08428 -4.07812,-0.0258c-0.00688,0 -0.01204,0 -0.0172,0c-0.2064,0 -0.37668,-0.16168 -0.387,-0.3698c-0.0086,-0.21328 0.15824,-0.39388 0.3698,-0.4042c1.37772,-0.05676 2.77264,-0.04816 4.1538,0.0258c0.21328,0.01204 0.37496,0.19436 0.36464,0.40764c-0.01032,0.20468 -0.17888,0.36636 -0.38356,0.36636z">
                </path>
            </g>
            <g fill="#472b29">
                <path d="M99.96296,85.41864c-0.17888,0 -0.34056,-0.12556 -0.37668,-0.30616c-0.04472,-0.20812 0.08944,-0.41452 0.29756,-0.45752c1.01136,-0.215 2.05196,-0.39388 3.09084,-0.5332c0.2236,-0.01548 0.40764,0.1204 0.43516,0.33196c0.02752,0.21156 -0.1204,0.40592 -0.33196,0.43516c-1.01996,0.13588 -2.04164,0.31132 -3.03408,0.52116c-0.02752,0.00516 -0.05676,0.0086 -0.08084,0.0086z">
                </path>
            </g>
            <g fill="#472b29">
                <path d="M92.30896,87.80256c-0.15136,0 -0.29584,-0.08944 -0.35604,-0.23736c-0.08428,-0.19608 0.01032,-0.4214 0.20812,-0.50396c1.76472,-0.73272 3.57244,-1.35192 5.375,-1.8404c0.2064,-0.05676 0.41968,0.0688 0.47472,0.27176c0.05504,0.2064 -0.06708,0.41968 -0.27176,0.47472c-1.7716,0.4816 -3.54664,1.08876 -5.2804,1.80772c-0.04988,0.01892 -0.09804,0.02752 -0.14964,0.02752z">
                </path>
            </g>
            <g fill="#472b29">
                <path d="M92.30896,94.4882c-0.15136,0 -0.29584,-0.08944 -0.35604,-0.23736c-0.08428,-0.19608 0.01032,-0.4214 0.20812,-0.50396c6.02172,-2.50088 12.33584,-3.5862 18.75316,-3.24908c0.21328,0.01204 0.37496,0.19264 0.36464,0.40764c-0.01204,0.21156 -0.14964,0.39044 -0.40764,0.36464c-6.30208,-0.34572 -12.50096,0.73616 -18.41432,3.18888c-0.04816,0.02064 -0.09632,0.02924 -0.14792,0.02924z">
                </path>
            </g>
            <g fill="#472b29">
                <path d="M98.94128,98.80368c-0.17544,0 -0.33368,-0.11868 -0.37496,-0.29756c-0.04988,-0.20812 0.07912,-0.41624 0.28724,-0.46612c3.91988,-0.9288 7.9808,-1.28484 12.06408,-1.07156c0.21328,0.01204 0.37496,0.19264 0.36464,0.40764c-0.01204,0.21156 -0.14964,0.39044 -0.40764,0.36464c-4.0162,-0.22016 -7.998,0.1376 -11.8422,1.05092c-0.03268,0.0086 -0.06364,0.01204 -0.09116,0.01204z">
                </path>
            </g>
            <g fill="#472b29">
                <path d="M92.30896,100.95712c-0.15136,0 -0.29584,-0.08944 -0.35776,-0.23736c-0.08256,-0.1978 0.01204,-0.4214 0.20984,-0.50568c1.13004,-0.46784 2.28416,-0.89268 3.42452,-1.26076c0.21156,-0.0602 0.4214,0.04644 0.48676,0.2494c0.06536,0.20468 -0.04644,0.4214 -0.2494,0.48676c-1.12316,0.35948 -2.25664,0.77916 -3.36776,1.24012c-0.04644,0.01892 -0.0946,0.02752 -0.1462,0.02752z">
                </path>
            </g>
            <g fill="#472b29">
                <path d="M92.30896,107.64276c-0.15136,0 -0.29584,-0.08944 -0.35604,-0.23736c-0.08428,-0.1978 0.01032,-0.4214 0.20812,-0.50396c5.47304,-2.27212 11.63924,-3.1906 18.84432,-2.80016c0.21328,0.01204 0.37496,0.19436 0.36464,0.40764c-0.01204,0.2064 -0.18232,0.36464 -0.387,0.36464c-0.00688,0 -0.01376,0 -0.02236,0c-7.07952,-0.387 -13.1408,0.51428 -18.50548,2.73824c-0.04644,0.02408 -0.0946,0.03096 -0.1462,0.03096z">
                </path>
            </g>
            <g fill="#472b29">
                <path d="M72.84544,78.36492c-0.01548,0 -0.03268,-0.00172 -0.04816,-0.00344c-2.41144,-0.29756 -4.89168,-0.38528 -7.35988,-0.24596c-0.23736,0.01376 -0.3956,-0.15308 -0.40592,-0.36464c-0.01032,-0.21156 0.15136,-0.3956 0.36464,-0.40764c2.51808,-0.13244 5.04304,-0.05332 7.49748,0.25284c0.21156,0.0258 0.3612,0.22016 0.3354,0.43c-0.02408,0.19608 -0.19092,0.33884 -0.38356,0.33884z">
                </path>
            </g>
            <g fill="#472b29">
                <path d="M78.27376,79.40208c-0.03268,0 -0.06536,-0.00516 -0.09804,-0.01204c-0.8944,-0.2322 -1.80428,-0.43688 -2.70556,-0.61232c-0.20984,-0.03784 -0.34744,-0.2408 -0.30788,-0.45236c0.03956,-0.21156 0.2408,-0.35604 0.45236,-0.30616c0.91848,0.17544 1.84556,0.38356 2.75544,0.6192c0.2064,0.05332 0.33024,0.2666 0.27692,0.473c-0.04472,0.17544 -0.19952,0.29068 -0.37324,0.29068z">
                </path>
            </g>
            <g fill="#472b29">
                <path d="M84.00136,81.33192c-0.04988,0 -0.09976,-0.0086 -0.14792,-0.03096c-1.118,-0.46268 -2.2532,-0.88064 -3.37464,-1.24184c-0.20296,-0.06708 -0.31476,-0.2838 -0.2494,-0.48504c0.06536,-0.20468 0.28552,-0.3096 0.48504,-0.25112c1.14208,0.36808 2.29792,0.79464 3.43484,1.2642c0.19608,0.08256 0.29068,0.30616 0.20812,0.50396c-0.06192,0.15136 -0.20468,0.2408 -0.35604,0.2408z">
                </path>
            </g>
            <g fill="#472b29">
                <path d="M84.00136,88.12592c-0.04988,0 -0.09976,-0.0086 -0.14792,-0.03096c-5.91508,-2.45272 -12.10364,-3.52256 -18.41604,-3.18716c-0.21328,0.0258 -0.39388,-0.1548 -0.40592,-0.36464c-0.01032,-0.21328 0.15136,-0.3956 0.36464,-0.40764c6.42592,-0.344 12.73144,0.7482 18.75316,3.24736c0.19608,0.08256 0.29068,0.30788 0.20812,0.50396c-0.06192,0.14964 -0.20468,0.23908 -0.35604,0.23908z">
                </path>
            </g>
            <g fill="#472b29">
                <path d="M70.51484,91.30104c-0.0086,0 -0.0172,0 -0.0258,-0.00172c-1.66152,-0.11008 -3.36088,-0.11868 -5.05164,-0.02924c-0.21328,-0.00688 -0.39388,-0.15308 -0.40592,-0.36464c-0.01204,-0.21156 0.15136,-0.3956 0.36464,-0.40764c1.72172,-0.08944 3.45204,-0.08084 5.1428,0.03268c0.21328,0.01376 0.37496,0.1978 0.35948,0.41108c-0.01376,0.20296 -0.18232,0.35948 -0.38356,0.35948z">
                </path>
            </g>
            <g fill="#472b29">
                <path d="M84.00136,94.4882c-0.04988,0 -0.09976,-0.0086 -0.14792,-0.03096c-3.05128,-1.26592 -6.20232,-2.17408 -9.3654,-2.69696c-0.20984,-0.03612 -0.3526,-0.23392 -0.3182,-0.44548c0.0344,-0.20984 0.22876,-0.34916 0.44548,-0.3182c3.22156,0.53492 6.42936,1.45856 9.53396,2.74856c0.1978,0.08256 0.29068,0.30788 0.20812,0.50396c-0.06192,0.14964 -0.20468,0.23908 -0.35604,0.23908z">
                </path>
            </g>
            <g fill="#472b29">
                <path d="M84.00136,100.42048c-0.04988,0 -0.09976,-0.0086 -0.14792,-0.03096c-5.9168,-2.45272 -12.11052,-3.52772 -18.41604,-3.18716c-0.21328,0.00688 -0.39388,-0.15308 -0.40592,-0.36464c-0.01204,-0.21156 0.15136,-0.3956 0.36464,-0.40764c6.41044,-0.33712 12.728,0.74648 18.75316,3.24736c0.19608,0.08256 0.29068,0.30616 0.20812,0.50396c-0.06192,0.15136 -0.20468,0.23908 -0.35604,0.23908z">
                </path>
            </g>
            <g fill="#472b29">
                <path d="M77.41548,105.64068c-0.0258,0 -0.05332,-0.00344 -0.0774,-0.00688c-3.66188,-0.74476 -7.58348,-0.99588 -11.99012,-0.75852c-0.19436,-0.00516 -0.39388,-0.15308 -0.40592,-0.36464c-0.01032,-0.215 0.15136,-0.3956 0.36464,-0.40764c4.47028,-0.23736 8.45724,0.01376 12.18448,0.77228c0.20812,0.04128 0.344,0.24768 0.301,0.4558c-0.03612,0.18232 -0.1978,0.3096 -0.37668,0.3096z">
                </path>
            </g>
            <g fill="#472b29">
                <path d="M84.00136,107.64276c-0.04988,0 -0.09976,-0.0086 -0.14792,-0.03096c-1.02684,-0.42484 -2.09668,-0.8084 -3.18372,-1.13864c-0.20468,-0.06192 -0.31992,-0.27864 -0.258,-0.4816c0.06364,-0.2064 0.27692,-0.31304 0.4816,-0.258c1.1094,0.33712 2.20504,0.72928 3.25424,1.16616c0.19608,0.08256 0.29068,0.30788 0.20812,0.50396c-0.0602,0.15136 -0.20296,0.23908 -0.35432,0.23908z">
                </path>
            </g>
            <g>
                <path d="M87.72,56.35064l-36.636,10.59004v-6.93676l36.636,-10.59004l36.636,10.59004v6.93676z" fill="#a88a9c">
                </path>
                <path d="M87.72,50.66776l35.432,10.2426v4.43072l-34.76292,-10.04996l-0.66908,-0.19436l-0.66908,0.19436l-34.76292,10.04824v-4.43072l35.432,-10.24088M87.72,48.16l-37.84,10.9392v9.4428l37.84,-10.9392l37.84,10.9392v-9.4428l-37.84,-10.9392z" fill="#472b29">
                </path>
            </g>
            <g fill="#472b29">
                <path d="M87.763,116.5644c-0.07224,0 -0.1462,-0.01032 -0.21844,-0.02924c-8.00144,-2.10012 -17.20688,-3.12008 -27.34112,-3.06332c-0.23392,-0.07224 -0.44892,-0.08772 -0.6106,-0.25112c-0.1634,-0.16168 -0.25284,-0.38184 -0.25284,-0.60888v-40.20328h1.72v39.33984c0.02236,0 0.04472,0 0.0688,0c9.47376,0 18.13396,0.95804 25.7742,2.84832v-37.54932h1.72v38.657c0,0.2666 -0.12384,0.51772 -0.33368,0.68112c-0.15308,0.11524 -0.33712,0.17888 -0.52632,0.17888z">
                </path>
            </g>
            <g fill="#472b29">
                <path d="M87.763,116.5644c-0.18748,0 -0.37324,-0.06192 -0.52632,-0.17888c-0.20984,-0.1634 -0.33368,-0.41452 -0.33368,-0.68112v-38.65872h1.72v37.55104c7.61444,-1.892 16.24712,-2.84832 25.69164,-2.84832c0.02236,0 0.043,0 0.06536,0v-39.33984h1.72v40.20328c0,0.22876 -0.09116,0.44892 -0.25284,0.60888c-0.16168,0.16168 -0.38012,0.25112 -0.60716,0.25112c-0.00172,0 -0.00344,0 -0.00516,0c-10.09812,-0.0344 -19.27776,0.96492 -27.2534,3.06332c-0.07224,0.01892 -0.14448,0.02924 -0.21844,0.02924z">
                </path>
            </g>
        </g>
    </g>
</svg>